<?xml version="1.0" standalone="no"?>
<!DOCTYPE svg PUBLIC "-//W3C//DTD SVG 1.1//EN" "http://www.w3.org/Graphics/SVG/1.1/DTD/svg11.dtd" >
<svg xmlns="http://www.w3.org/2000/svg" xmlns:xlink="http://www.w3.org/1999/xlink" version="1.1">
<metadata>
Created by FontForge 20170924 at Wed Sep 11 13:34:55 2019
 By www-data
Copyright 2019 The Big Shoulders Project Authors (https://github.com/xotypeco/big_shoulders)
</metadata>
<defs>
<font id="BigShouldersText-SemiBold" horiz-adv-x="0" >
  <font-face 
    font-family="Big Shoulders Text SemiBold"
    font-weight="600"
    font-stretch="normal"
    units-per-em="1000"
    panose-1="0 0 0 0 0 0 0 0 0 0"
    ascent="800"
    descent="-200"
    x-height="600"
    cap-height="800"
    bbox="-225 -209 755 927"
    underline-thickness="20"
    underline-position="-50"
    unicode-range="U+000D-2215"
  />
<missing-glyph horiz-adv-x="620" 
 />
    <glyph glyph-name="f_f" unicode="ff" horiz-adv-x="606" 
d="M88 0l-1 525h-57v75h57v67q0 76 39 109t124 33q16 0 36 -2t36 -4v-73q-15 1 -33 1.5t-38 0.5q-33 0 -49.5 -12.5t-16.5 -45.5v-74h176v67q0 76 39 109t124 33q16 0 35.5 -2t36.5 -4v-73q-16 1 -33.5 1.5t-37.5 0.5q-33 0 -49.5 -12.5t-16.5 -45.5v-74h109v-75h-109
l1 -525h-98l-1 525h-176l1 -525h-98z" />
    <glyph glyph-name="f_f_i" unicode="ffi" horiz-adv-x="787" 
d="M88 0l-1 525h-57v75h57v67q0 76 39 109t124 33q16 0 36 -2t36 -4v-73q-15 1 -33 1.5t-38 0.5q-33 0 -49.5 -12.5t-16.5 -45.5v-74h176v67q0 76 39 109t124 33q16 0 35.5 -2t36.5 -4v-73q-16 1 -33.5 1.5t-37.5 0.5q-33 0 -49.5 -12.5t-16.5 -45.5v-74h109v-75h-109
l1 -525h-98l-1 525h-176l1 -525h-98zM631 712v88h116v-88h-116zM641 0v600h97v-600h-97z" />
    <glyph glyph-name="f_f_l" unicode="ffl" horiz-adv-x="802" 
d="M88 0l-1 525h-57v75h57v67q0 76 39 109t124 33q16 0 36 -2t36 -4v-73q-15 1 -33 1.5t-38 0.5q-33 0 -49.5 -12.5t-16.5 -45.5v-74h176v67q0 76 39 109t124 33q16 0 35.5 -2t36.5 -4v-73q-16 1 -33.5 1.5t-37.5 0.5q-33 0 -49.5 -12.5t-16.5 -45.5v-74h109v-75h-109
l1 -525h-98l-1 525h-176l1 -525h-98zM656 0v800h97v-800h-97z" />
    <glyph glyph-name="fi" unicode="fi" horiz-adv-x="514" 
d="M88 0l-1 525h-57v75h57v67q0 76 39 109t124 33q16 0 36 -2t36 -4v-73q-15 1 -33 1.5t-38 0.5q-33 0 -49.5 -12.5t-16.5 -45.5v-74h117v-75h-117l1 -525h-98zM357 712v88h116v-88h-116zM367 0v600h97v-600h-97z" />
    <glyph glyph-name="fl" unicode="fl" horiz-adv-x="528" 
d="M88 0l-1 525h-57v75h57v67q0 76 39 109t124 33q16 0 36 -2t36 -4v-73q-15 1 -33 1.5t-38 0.5q-33 0 -49.5 -12.5t-16.5 -45.5v-74h117v-75h-117l1 -525h-98zM382 0v800h97v-800h-97z" />
    <glyph glyph-name=".notdef" horiz-adv-x="620" 
 />
    <glyph glyph-name="A" unicode="A" horiz-adv-x="430" 
d="M30 0l92 800h186l93 -800h-100l-19 211h-133l-20 -211h-99zM157 298h116l-16 171l-20 244h-44l-20 -244z" />
    <glyph glyph-name="Aacute" unicode="&#xc1;" horiz-adv-x="430" 
d="M30 0l92 800h186l93 -800h-100l-19 211h-133l-20 -211h-99zM157 298h116l-16 171l-20 244h-44l-20 -244zM190 842v2l105 71h78v-2l-116 -71h-67z" />
    <glyph glyph-name="Abreve" horiz-adv-x="430" 
d="M30 0l92 800h186l93 -800h-100l-19 211h-133l-20 -211h-99zM157 298h116l-16 171l-20 244h-44l-20 -244zM86 922h63q0 -19 18 -30t48 -11t48 11t18 30h63q-2 -40 -37.5 -65t-91.5 -25t-91.5 25t-37.5 65z" />
    <glyph glyph-name="Acircumflex" unicode="&#xc2;" horiz-adv-x="430" 
d="M30 0l92 800h186l93 -800h-100l-19 211h-133l-20 -211h-99zM157 298h116l-16 171l-20 244h-44l-20 -244zM80 836l97 79h70l97 -79h-75l-57 49l-57 -49h-75z" />
    <glyph glyph-name="Adieresis" unicode="&#xc4;" horiz-adv-x="430" 
d="M30 0l92 800h186l93 -800h-100l-19 211h-133l-20 -211h-99zM157 298h116l-16 171l-20 244h-44l-20 -244zM236 849v69h93v-69h-93zM102 849v69h93v-69h-93z" />
    <glyph glyph-name="Agrave" unicode="&#xc0;" horiz-adv-x="430" 
d="M30 0l92 800h186l93 -800h-100l-19 211h-133l-20 -211h-99zM157 298h116l-16 171l-20 244h-44l-20 -244zM68 913v2h78l105 -71v-2h-66z" />
    <glyph glyph-name="Aring" unicode="&#xc5;" horiz-adv-x="430" 
d="M30 0l92 800h186l93 -800h-100l-19 211h-133l-20 -211h-99zM157 298h116l-16 171l-20 244h-44l-20 -244zM215 758q-36 0 -62.5 24.5t-26.5 60.5q0 34 26.5 59t62.5 25q37 0 63.5 -25t26.5 -59q0 -36 -26.5 -60.5t-63.5 -24.5zM172 843q0 -17 13 -28.5t30 -11.5
q18 0 31 11.5t13 28.5q0 16 -13.5 28t-30.5 12t-30 -12t-13 -28z" />
    <glyph glyph-name="Atilde" unicode="&#xc3;" horiz-adv-x="430" 
d="M30 0l92 800h186l93 -800h-100l-19 211h-133l-20 -211h-99zM157 298h116l-16 171l-20 244h-44l-20 -244zM80 842q2 40 26 58t63 14q24 -1 39 -9t28 -15t30 -8q39 -2 39 32h44q-3 -82 -84 -77q-25 1 -41 8.5t-29.5 15t-30.5 9.5q-38 6 -41 -28h-43z" />
    <glyph glyph-name="AE" unicode="&#xc6;" horiz-adv-x="622" 
d="M588 713h-194v-266h184v-87h-184v-273h194v-87h-291v208h-123l-39 -208h-105l150 800h408v-87zM192 295h105v419h-42l-34 -268z" />
    <glyph glyph-name="B" unicode="B" horiz-adv-x="428" 
d="M54 0v800h164q87 0 127 -34.5t40 -113.5q1 -41 1 -71t-1 -60q-3 -46 -20.5 -72t-55.5 -37v-18q40 -11 58 -37.5t20 -72.5q2 -38 1.5 -68.5t-1.5 -67.5q-3 -79 -41.5 -113.5t-125.5 -34.5h-166zM151 447h73q34 0 49 18t15 58q1 36 1 66.5t-1 66.5q0 31 -16 44t-54 13h-67
v-266zM151 88h69q38 0 53.5 14t16.5 47q2 66 0 131q-1 45 -16 62.5t-52 17.5h-71v-272z" />
    <glyph glyph-name="C" unicode="C" horiz-adv-x="445" 
d="M228 -8q-89 0 -129.5 35.5t-42.5 118.5q-1 92 -1.5 173t0 162t1.5 173q2 81 43 117t129 36q87 0 128 -37t44 -116q2 -36 1.5 -69t-1.5 -69h-97q1 38 1.5 71.5t-1.5 70.5q-1 38 -18 53t-57 15t-57 -15t-18 -53q-1 -73 -2 -136t-1 -122.5t1 -122.5t2 -135q1 -39 18.5 -54
t56.5 -15q42 0 60 15t19 54q2 33 2 65.5t-2 83.5h97q1 -42 1.5 -77t-1.5 -68q-3 -83 -44 -118.5t-132 -35.5z" />
    <glyph glyph-name="Ccedilla" unicode="&#xc7;" horiz-adv-x="445" 
d="M228 -8q-89 0 -129.5 35.5t-42.5 118.5q-1 92 -1.5 173t0 162t1.5 173q2 81 43 117t129 36q87 0 128 -37t44 -116q2 -36 1.5 -69t-1.5 -69h-97q1 38 1.5 71.5t-1.5 70.5q-1 38 -18 53t-57 15t-57 -15t-18 -53q-1 -73 -2 -136t-1 -122.5t1 -122.5t2 -135q1 -39 18.5 -54
t56.5 -15q42 0 60 15t19 54q2 33 2 65.5t-2 83.5h97q1 -42 1.5 -77t-1.5 -68q-3 -83 -44 -118.5t-132 -35.5zM273 -137q-15 0 -32 1.5t-31 4.5l9 36q21 -4 54 -3q27 1 27 17q0 11 -8 16t-19 5h-64l-4 4v69h48v-38h20q31 0 52.5 -12.5t21.5 -43.5q0 -54 -74 -56z" />
    <glyph glyph-name="D" unicode="D" horiz-adv-x="444" 
d="M54 0v800h167q88 0 126.5 -35t40.5 -116q1 -89 1.5 -169t0 -160t-1.5 -169q-2 -80 -40 -115.5t-123 -35.5h-171zM151 87h74q35 0 50 13t16 42q2 95 3 176.5t0 163t-3 176.5q-1 29 -17 42t-53 13h-70v-626z" />
    <glyph glyph-name="Eth" unicode="&#xd0;" horiz-adv-x="479" 
d="M89 0v421h-39v52h39v327h166q88 0 127 -35t40 -116q2 -89 2.5 -169t0 -160t-2.5 -169q-1 -80 -39 -115.5t-123 -35.5h-171zM186 87h74q35 0 50 13t16 42q2 95 2.5 176.5t0 163t-2.5 176.5q-1 29 -17 42t-54 13h-69v-240h55v-52h-55v-334z" />
    <glyph glyph-name="E" unicode="E" horiz-adv-x="379" 
d="M54 0v800h291v-87h-194v-266h184v-87h-184v-273h194v-87h-291z" />
    <glyph glyph-name="Eacute" unicode="&#xc9;" horiz-adv-x="379" 
d="M54 0v800h291v-87h-194v-266h184v-87h-184v-273h194v-87h-291zM173 841v2l105 71h78v-2l-116 -71h-67z" />
    <glyph glyph-name="Ecircumflex" unicode="&#xca;" horiz-adv-x="379" 
d="M54 0v800h291v-87h-194v-266h184v-87h-184v-273h194v-87h-291zM63 835l97 79h70l97 -79h-75l-57 49l-57 -49h-75z" />
    <glyph glyph-name="Edieresis" unicode="&#xcb;" horiz-adv-x="379" 
d="M54 0v800h291v-87h-194v-266h184v-87h-184v-273h194v-87h-291zM219 848v69h93v-69h-93zM85 848v69h93v-69h-93z" />
    <glyph glyph-name="Egrave" unicode="&#xc8;" horiz-adv-x="379" 
d="M54 0v800h291v-87h-194v-266h184v-87h-184v-273h194v-87h-291zM51 912v2h78l105 -71v-2h-66z" />
    <glyph glyph-name="F" unicode="F" horiz-adv-x="384" 
d="M54 0v800h296v-87h-199v-266h189v-87h-189v-360h-97z" />
    <glyph glyph-name="G" unicode="G" horiz-adv-x="440" 
d="M230 -8q-92 0 -131.5 35.5t-41.5 118.5q-3 122 -3 253t3 251q3 84 42.5 121t130.5 37q89 0 128 -35.5t43 -118.5q3 -68 0 -137h-97q2 40 2 73.5t-2 73.5q-2 35 -17.5 48.5t-56.5 13.5q-43 0 -59 -13.5t-17 -48.5q-3 -94 -4 -179t0 -170t4 -178q1 -36 17 -49.5t59 -13.5
q45 0 61.5 13.5t18.5 49.5q2 63 0 127h-74v86h168q2 -58 1.5 -108t-1.5 -96q-3 -83 -43 -118.5t-131 -35.5z" />
    <glyph glyph-name="H" unicode="H" horiz-adv-x="445" 
d="M54 0v800h97v-353h142v353h97v-800h-97v360h-142v-360h-97z" />
    <glyph glyph-name="I" unicode="I" horiz-adv-x="206" 
d="M54 0v800h97v-800h-97z" />
    <glyph glyph-name="Iacute" unicode="&#xcd;" horiz-adv-x="206" 
d="M54 0v800h97v-800h-97zM78 842v2l105 71h78v-2l-116 -71h-67z" />
    <glyph glyph-name="Icircumflex" unicode="&#xce;" horiz-adv-x="206" 
d="M54 0v800h97v-800h-97zM-32 836l97 79h70l97 -79h-75l-57 49l-57 -49h-75z" />
    <glyph glyph-name="Idieresis" unicode="&#xcf;" horiz-adv-x="206" 
d="M54 0v800h97v-800h-97zM124 849v69h93v-69h-93zM-10 849v69h93v-69h-93z" />
    <glyph glyph-name="Igrave" unicode="&#xcc;" horiz-adv-x="206" 
d="M54 0v800h97v-800h-97zM-45 913v2h78l105 -71v-2h-66z" />
    <glyph glyph-name="J" unicode="J" horiz-adv-x="383" 
d="M181 -8q-83 0 -120.5 35.5t-39.5 118.5q-2 73 0 146h92q-1 -38 -1 -78t1 -77q1 -35 16 -49t52 -14q40 0 55.5 14t15.5 49v663h97v-654q0 -83 -39 -118.5t-129 -35.5z" />
    <glyph glyph-name="K" unicode="K" horiz-adv-x="446" 
d="M54 0v800h103l-1 -178l-9 -233h28l65 234l60 177h106l-123 -351l133 -449h-99l-98 339l-66 -159v-180h-99z" />
    <glyph glyph-name="L" unicode="L" horiz-adv-x="369" 
d="M54 0v800h97v-713h189v-87h-286z" />
    <glyph glyph-name="M" unicode="M" horiz-adv-x="703" 
d="M55 0v800h202l49 -322l30 -389h32l29 389l50 322h198l3 -800h-99v235l12 479h-44l-49 -483l-42 -229h-150l-40 229l-53 483h-43l15 -477v-237h-100z" />
    <glyph glyph-name="N" unicode="N" horiz-adv-x="532" 
d="M54 0v800h187l49 -254l67 -460h44l-15 417l-6 297h97v-800h-193l-52 281l-56 433h-45l14 -410l7 -304h-98z" />
    <glyph glyph-name="Ntilde" unicode="&#xd1;" horiz-adv-x="532" 
d="M54 0v800h187l49 -254l67 -460h44l-15 417l-6 297h97v-800h-193l-52 281l-56 433h-45l14 -410l7 -304h-98zM138 842q2 40 26 58t63 14q24 -1 39 -9t28 -15t30 -8q39 -2 39 32h44q-3 -82 -84 -77q-25 1 -41 8.5t-29.5 15t-30.5 9.5q-38 6 -41 -28h-43z" />
    <glyph glyph-name="O" unicode="O" horiz-adv-x="456" 
d="M228 -8q-90 0 -130 36.5t-41 121.5q-2 94 -2.5 173t0 157.5t2.5 170.5q1 84 41 120.5t130 36.5q89 0 129 -36.5t42 -120.5q2 -93 3 -171t0 -157t-3 -173q-2 -85 -42 -121.5t-129 -36.5zM228 74q41 0 57 15.5t17 55.5q2 72 3 134t1 121t-1 121t-3 134q-1 40 -17 55.5
t-57 15.5q-40 0 -56.5 -15.5t-17.5 -55.5q-2 -71 -3 -132.5t-1 -120.5t1 -121.5t3 -135.5q1 -40 17.5 -55.5t56.5 -15.5z" />
    <glyph glyph-name="Oacute" unicode="&#xd3;" horiz-adv-x="456" 
d="M228 -8q-90 0 -130 36.5t-41 121.5q-2 94 -2.5 173t0 157.5t2.5 170.5q1 84 41 120.5t130 36.5q89 0 129 -36.5t42 -120.5q2 -93 3 -171t0 -157t-3 -173q-2 -85 -42 -121.5t-129 -36.5zM228 74q41 0 57 15.5t17 55.5q2 72 3 134t1 121t-1 121t-3 134q-1 40 -17 55.5
t-57 15.5q-40 0 -56.5 -15.5t-17.5 -55.5q-2 -71 -3 -132.5t-1 -120.5t1 -121.5t3 -135.5q1 -40 17.5 -55.5t56.5 -15.5zM203 842v2l105 71h78v-2l-116 -71h-67z" />
    <glyph glyph-name="Ocircumflex" unicode="&#xd4;" horiz-adv-x="456" 
d="M228 -8q-90 0 -130 36.5t-41 121.5q-2 94 -2.5 173t0 157.5t2.5 170.5q1 84 41 120.5t130 36.5q89 0 129 -36.5t42 -120.5q2 -93 3 -171t0 -157t-3 -173q-2 -85 -42 -121.5t-129 -36.5zM228 74q41 0 57 15.5t17 55.5q2 72 3 134t1 121t-1 121t-3 134q-1 40 -17 55.5
t-57 15.5q-40 0 -56.5 -15.5t-17.5 -55.5q-2 -71 -3 -132.5t-1 -120.5t1 -121.5t3 -135.5q1 -40 17.5 -55.5t56.5 -15.5zM94 836l97 79h70l97 -79h-75l-57 49l-57 -49h-75z" />
    <glyph glyph-name="Odieresis" unicode="&#xd6;" horiz-adv-x="456" 
d="M228 -8q-90 0 -130 36.5t-41 121.5q-2 94 -2.5 173t0 157.5t2.5 170.5q1 84 41 120.5t130 36.5q89 0 129 -36.5t42 -120.5q2 -93 3 -171t0 -157t-3 -173q-2 -85 -42 -121.5t-129 -36.5zM228 74q41 0 57 15.5t17 55.5q2 72 3 134t1 121t-1 121t-3 134q-1 40 -17 55.5
t-57 15.5q-40 0 -56.5 -15.5t-17.5 -55.5q-2 -71 -3 -132.5t-1 -120.5t1 -121.5t3 -135.5q1 -40 17.5 -55.5t56.5 -15.5zM250 849v69h93v-69h-93zM116 849v69h93v-69h-93z" />
    <glyph glyph-name="Ograve" unicode="&#xd2;" horiz-adv-x="456" 
d="M228 -8q-90 0 -130 36.5t-41 121.5q-2 94 -2.5 173t0 157.5t2.5 170.5q1 84 41 120.5t130 36.5q89 0 129 -36.5t42 -120.5q2 -93 3 -171t0 -157t-3 -173q-2 -85 -42 -121.5t-129 -36.5zM228 74q41 0 57 15.5t17 55.5q2 72 3 134t1 121t-1 121t-3 134q-1 40 -17 55.5
t-57 15.5q-40 0 -56.5 -15.5t-17.5 -55.5q-2 -71 -3 -132.5t-1 -120.5t1 -121.5t3 -135.5q1 -40 17.5 -55.5t56.5 -15.5zM81 913v2h78l105 -71v-2h-66z" />
    <glyph glyph-name="Oslash" unicode="&#xd8;" horiz-adv-x="456" 
d="M228 -8q-90 0 -130 36.5t-41 121.5q-2 94 -2.5 173t0 157.5t2.5 170.5q1 84 41 120.5t130 36.5q89 0 129 -36.5t42 -120.5q2 -93 3 -171t0 -157t-3 -173q-2 -85 -42 -121.5t-129 -36.5zM154 655q-2 -75 -3 -140t-1 -127.5t1 -131.5l124 461q-16 9 -47 9
q-40 0 -56.5 -15.5t-17.5 -55.5zM228 74q41 0 57 15.5t17 55.5q2 76 3 140.5t1 126.5t-1 129l-123 -459q16 -8 46 -8z" />
    <glyph glyph-name="Otilde" unicode="&#xd5;" horiz-adv-x="456" 
d="M228 -8q-90 0 -130 36.5t-41 121.5q-2 94 -2.5 173t0 157.5t2.5 170.5q1 84 41 120.5t130 36.5q89 0 129 -36.5t42 -120.5q2 -93 3 -171t0 -157t-3 -173q-2 -85 -42 -121.5t-129 -36.5zM228 74q41 0 57 15.5t17 55.5q2 72 3 134t1 121t-1 121t-3 134q-1 40 -17 55.5
t-57 15.5q-40 0 -56.5 -15.5t-17.5 -55.5q-2 -71 -3 -132.5t-1 -120.5t1 -121.5t3 -135.5q1 -40 17.5 -55.5t56.5 -15.5zM94 842q2 40 26 58t63 14q24 -1 39 -9t28 -15t30 -8q39 -2 39 32h44q-3 -82 -84 -77q-25 1 -41 8.5t-29.5 15t-30.5 9.5q-38 6 -41 -28h-43z" />
    <glyph glyph-name="OE" unicode="&#x152;" horiz-adv-x="630" 
d="M228 -8q-90 0 -130 36.5t-41 121.5q-2 94 -2.5 173t0 157.5t2.5 170.5q1 84 41 120.5t130 36.5q89 0 129 -36.5t42 -120.5q2 -93 3 -171t0 -157t-3 -173q-2 -85 -42 -121.5t-129 -36.5zM228 74q41 0 57 15.5t17 55.5q2 72 3 134t1 121t-1 121t-3 134q-1 40 -17 55.5
t-57 15.5q-40 0 -56.5 -15.5t-17.5 -55.5q-2 -71 -3 -132.5t-1 -120.5t1 -121.5t3 -135.5q1 -40 17.5 -55.5t56.5 -15.5zM305 0v800h291v-87h-194v-266h184v-87h-184v-273h194v-87h-291z" />
    <glyph glyph-name="P" unicode="P" horiz-adv-x="413" 
d="M54 0v800h165q84 0 121.5 -34t40.5 -112q2 -61 2 -109.5t-2 -100.5q-3 -78 -40.5 -112t-122.5 -34h-67v-298h-97zM151 385h67q35 0 50 12.5t16 42.5q3 52 3 104.5t-3 113.5q-1 30 -16 42.5t-49 12.5h-68v-328z" />
    <glyph glyph-name="Thorn" unicode="&#xde;" horiz-adv-x="399" 
d="M50 0v800h97v-139h62q84 0 122 -34t41 -112q1 -61 1.5 -109.5t-1.5 -101.5q-4 -77 -41.5 -111t-121.5 -34h-62v-159h-97zM147 245h62q34 0 49 13t17 42q2 58 2.5 110t-2.5 109q-2 29 -17 42t-49 13h-62v-329z" />
    <glyph glyph-name="Q" unicode="Q" horiz-adv-x="457" 
d="M356 -127q-68 -5 -102 23t-40 96q-83 3 -119.5 39.5t-37.5 118.5q-2 94 -2.5 173t0 157.5t2.5 170.5q1 84 41 120.5t130 36.5q89 0 129 -36.5t42 -120.5q2 -93 3 -171t0 -157t-3 -173q-1 -63 -23 -98t-69 -48q-1 -31 11 -42.5t38 -8.5v-80zM228 74q41 0 57 15.5t17 55.5
q2 72 3 134t1 121t-1 121t-3 134q-1 40 -17 55.5t-57 15.5q-40 0 -56.5 -15.5t-17.5 -55.5q-2 -71 -3 -132.5t-1 -120.5t1 -121.5t3 -135.5q1 -40 17.5 -55.5t56.5 -15.5z" />
    <glyph glyph-name="R" unicode="R" horiz-adv-x="424" 
d="M54 0v800h164q84 0 122 -34t40 -112q3 -63 3 -110t-3 -102q-3 -100 -70 -129l85 -313h-103l-74 297h-67v-297h-97zM151 384h66q35 0 50 12.5t16 41.5q3 60 3 110t-3 110q-1 30 -16 42.5t-49 12.5h-67v-329z" />
    <glyph glyph-name="S" unicode="S" horiz-adv-x="454" 
d="M228 -8q-88 0 -127.5 35.5t-42.5 118.5q-2 38 -1.5 72.5t3.5 73.5h92q-2 -43 -2.5 -82.5t2.5 -77.5q2 -32 19.5 -45t56.5 -13q37 0 54 13t19 45q3 31 2.5 66.5t-2.5 66.5q-1 35 -16.5 54.5t-46.5 27.5l-65 15q-66 16 -91 55.5t-27 114.5v60.5t1 62.5q3 82 42.5 117.5
t129.5 35.5q86 0 125 -35.5t42 -118.5q1 -29 0.5 -64.5t-1.5 -72.5h-94q2 43 2 79.5t-1 72.5q-1 31 -18.5 44t-55.5 13q-37 0 -54.5 -13t-19.5 -44q-2 -35 -2 -68.5t2 -68.5q1 -38 12 -57t38 -26l60 -13q74 -16 103.5 -56.5t32.5 -114.5q1 -28 0.5 -59.5t-1.5 -59.5
q-3 -83 -42.5 -118.5t-127.5 -35.5z" />
    <glyph glyph-name="T" unicode="T" horiz-adv-x="408" 
d="M156 0v713h-126v87h348v-87h-125v-713h-97z" />
    <glyph glyph-name="U" unicode="U" horiz-adv-x="452" 
d="M226 -8q-90 0 -129.5 35.5t-40.5 117.5q-2 164 -2 327t2 328h97q-2 -165 -1.5 -332.5t0.5 -332.5q0 -32 17.5 -46t56.5 -14q40 0 56.5 14t16.5 46q1 165 2 332.5t-2 332.5h97q2 -165 2 -328t-2 -327q-1 -82 -40.5 -117.5t-129.5 -35.5z" />
    <glyph glyph-name="Uacute" unicode="&#xda;" horiz-adv-x="452" 
d="M226 -8q-90 0 -129.5 35.5t-40.5 117.5q-2 164 -2 327t2 328h97q-2 -165 -1.5 -332.5t0.5 -332.5q0 -32 17.5 -46t56.5 -14q40 0 56.5 14t16.5 46q1 165 2 332.5t-2 332.5h97q2 -165 2 -328t-2 -327q-1 -82 -40.5 -117.5t-129.5 -35.5zM201 842v2l105 71h78v-2l-116 -71
h-67z" />
    <glyph glyph-name="Ucircumflex" unicode="&#xdb;" horiz-adv-x="452" 
d="M226 -8q-90 0 -129.5 35.5t-40.5 117.5q-2 164 -2 327t2 328h97q-2 -165 -1.5 -332.5t0.5 -332.5q0 -32 17.5 -46t56.5 -14q40 0 56.5 14t16.5 46q1 165 2 332.5t-2 332.5h97q2 -165 2 -328t-2 -327q-1 -82 -40.5 -117.5t-129.5 -35.5zM91 836l97 79h70l97 -79h-75
l-57 49l-57 -49h-75z" />
    <glyph glyph-name="Udieresis" unicode="&#xdc;" horiz-adv-x="452" 
d="M226 -8q-90 0 -129.5 35.5t-40.5 117.5q-2 164 -2 327t2 328h97q-2 -165 -1.5 -332.5t0.5 -332.5q0 -32 17.5 -46t56.5 -14q40 0 56.5 14t16.5 46q1 165 2 332.5t-2 332.5h97q2 -165 2 -328t-2 -327q-1 -82 -40.5 -117.5t-129.5 -35.5zM247 849v69h93v-69h-93zM113 849
v69h93v-69h-93z" />
    <glyph glyph-name="Ugrave" unicode="&#xd9;" horiz-adv-x="452" 
d="M226 -8q-90 0 -129.5 35.5t-40.5 117.5q-2 164 -2 327t2 328h97q-2 -165 -1.5 -332.5t0.5 -332.5q0 -32 17.5 -46t56.5 -14q40 0 56.5 14t16.5 46q1 165 2 332.5t-2 332.5h97q2 -165 2 -328t-2 -327q-1 -82 -40.5 -117.5t-129.5 -35.5zM79 913v2h78l105 -71v-2h-66z" />
    <glyph glyph-name="V" unicode="V" horiz-adv-x="437" 
d="M125 0l-95 800h100l49 -434l19 -280h41l20 280l48 434h101l-96 -800h-187z" />
    <glyph glyph-name="W" unicode="W" horiz-adv-x="714" 
d="M94 0l-60 800h98l19 -317l20 -397h41l19 397l43 312h165l43 -312l19 -397h41l20 397l20 317h98l-61 -800h-191l-27 252l-24 459h-40l-25 -459l-27 -252h-191z" />
    <glyph glyph-name="X" unicode="X" horiz-adv-x="423" 
d="M30 0l101 410l-97 390h95l44 -194l22 -157h34l22 156l44 195h94l-94 -393l98 -407h-94l-46 197l-24 166h-34l-24 -166l-46 -197h-95z" />
    <glyph glyph-name="Y" unicode="Y" horiz-adv-x="415" 
d="M159 0v272h-25l-104 528h99l37 -218l27 -230h29l26 230l38 218h99l-105 -528h-24v-272h-97z" />
    <glyph glyph-name="Yacute" unicode="&#xdd;" horiz-adv-x="415" 
d="M159 0v272h-25l-104 528h99l37 -218l27 -230h29l26 230l38 218h99l-105 -528h-24v-272h-97zM183 842v2l105 71h78v-2l-116 -71h-67z" />
    <glyph glyph-name="Z" unicode="Z" horiz-adv-x="374" 
d="M30 0v81l210 632h-199v87h303v-83l-215 -630h197v-87h-296z" />
    <glyph glyph-name="a" unicode="a" horiz-adv-x="414" 
d="M155 -7q-60 0 -89.5 30t-34.5 95q-1 11 -1.5 24t0.5 24q4 56 31.5 93t98.5 68q25 11 52 21t56 19v107q0 31 -15.5 45t-49.5 14q-29 0 -46 -11.5t-18 -41.5q-1 -12 -1 -31.5v-37t1 -25.5h-93q-3 37 -1 82q2 73 37.5 106.5t124.5 33.5t122.5 -36t33.5 -118l-1 -454h-96v58
h-15q-14 -32 -35 -48.5t-61 -16.5zM189 65q55 0 77 52l1 178q-21 -6 -41.5 -14t-44.5 -22q-32 -18 -42.5 -41.5t-10.5 -51.5q-1 -14 -1 -22.5t1 -18.5q2 -28 18 -44t43 -16z" />
    <glyph glyph-name="aacute" unicode="&#xe1;" horiz-adv-x="414" 
d="M155 -7q-60 0 -89.5 30t-34.5 95q-1 11 -1.5 24t0.5 24q4 56 31.5 93t98.5 68q25 11 52 21t56 19v107q0 31 -15.5 45t-49.5 14q-29 0 -46 -11.5t-18 -41.5q-1 -12 -1 -31.5v-37t1 -25.5h-93q-3 37 -1 82q2 73 37.5 106.5t124.5 33.5t122.5 -36t33.5 -118l-1 -454h-96v58
h-15q-14 -32 -35 -48.5t-61 -16.5zM189 65q55 0 77 52l1 178q-21 -6 -41.5 -14t-44.5 -22q-32 -18 -42.5 -41.5t-10.5 -51.5q-1 -14 -1 -22.5t1 -18.5q2 -28 18 -44t43 -16zM175 654l89 123h73l-92 -123h-70z" />
    <glyph glyph-name="acircumflex" unicode="&#xe2;" horiz-adv-x="414" 
d="M155 -7q-60 0 -89.5 30t-34.5 95q-1 11 -1.5 24t0.5 24q4 56 31.5 93t98.5 68q25 11 52 21t56 19v107q0 31 -15.5 45t-49.5 14q-29 0 -46 -11.5t-18 -41.5q-1 -12 -1 -31.5v-37t1 -25.5h-93q-3 37 -1 82q2 73 37.5 106.5t124.5 33.5t122.5 -36t33.5 -118l-1 -454h-96v58
h-15q-14 -32 -35 -48.5t-61 -16.5zM189 65q55 0 77 52l1 178q-21 -6 -41.5 -14t-44.5 -22q-32 -18 -42.5 -41.5t-10.5 -51.5q-1 -14 -1 -22.5t1 -18.5q2 -28 18 -44t43 -16zM94 642l79 123h63l79 -123h-68l-43 71l-42 -71h-68z" />
    <glyph glyph-name="adieresis" unicode="&#xe4;" horiz-adv-x="414" 
d="M155 -7q-60 0 -89.5 30t-34.5 95q-1 11 -1.5 24t0.5 24q4 56 31.5 93t98.5 68q25 11 52 21t56 19v107q0 31 -15.5 45t-49.5 14q-29 0 -46 -11.5t-18 -41.5q-1 -12 -1 -31.5v-37t1 -25.5h-93q-3 37 -1 82q2 73 37.5 106.5t124.5 33.5t122.5 -36t33.5 -118l-1 -454h-96v58
h-15q-14 -32 -35 -48.5t-61 -16.5zM189 65q55 0 77 52l1 178q-21 -6 -41.5 -14t-44.5 -22q-32 -18 -42.5 -41.5t-10.5 -51.5q-1 -14 -1 -22.5t1 -18.5q2 -28 18 -44t43 -16zM228 662v85h93v-85h-93zM94 662v85h93v-85h-93z" />
    <glyph glyph-name="agrave" unicode="&#xe0;" horiz-adv-x="414" 
d="M155 -7q-60 0 -89.5 30t-34.5 95q-1 11 -1.5 24t0.5 24q4 56 31.5 93t98.5 68q25 11 52 21t56 19v107q0 31 -15.5 45t-49.5 14q-29 0 -46 -11.5t-18 -41.5q-1 -12 -1 -31.5v-37t1 -25.5h-93q-3 37 -1 82q2 73 37.5 106.5t124.5 33.5t122.5 -36t33.5 -118l-1 -454h-96v58
h-15q-14 -32 -35 -48.5t-61 -16.5zM189 65q55 0 77 52l1 178q-21 -6 -41.5 -14t-44.5 -22q-32 -18 -42.5 -41.5t-10.5 -51.5q-1 -14 -1 -22.5t1 -18.5q2 -28 18 -44t43 -16zM81 777h70l92 -123h-70z" />
    <glyph glyph-name="aring" unicode="&#xe5;" horiz-adv-x="414" 
d="M155 -7q-60 0 -89.5 30t-34.5 95q-1 11 -1.5 24t0.5 24q4 56 31.5 93t98.5 68q25 11 52 21t56 19v107q0 31 -15.5 45t-49.5 14q-29 0 -46 -11.5t-18 -41.5q-1 -12 -1 -31.5v-37t1 -25.5h-93q-3 37 -1 82q2 73 37.5 106.5t124.5 33.5t122.5 -36t33.5 -118l-1 -454h-96v58
h-15q-14 -32 -35 -48.5t-61 -16.5zM189 65q55 0 77 52l1 178q-21 -6 -41.5 -14t-44.5 -22q-32 -18 -42.5 -41.5t-10.5 -51.5q-1 -14 -1 -22.5t1 -18.5q2 -28 18 -44t43 -16zM207 552q-33 0 -60.5 16t-43.5 42t-16 57q0 32 16 58t43.5 41.5t60.5 15.5q32 0 59.5 -15.5
t44 -41.5t16.5 -58q0 -31 -16.5 -57t-44 -42t-59.5 -16zM144 667q0 -24 18.5 -41t44.5 -17q25 0 43.5 17t18.5 41t-18.5 40.5t-43.5 16.5q-26 0 -44.5 -16.5t-18.5 -40.5z" />
    <glyph glyph-name="atilde" unicode="&#xe3;" horiz-adv-x="414" 
d="M155 -7q-60 0 -89.5 30t-34.5 95q-1 11 -1.5 24t0.5 24q4 56 31.5 93t98.5 68q25 11 52 21t56 19v107q0 31 -15.5 45t-49.5 14q-29 0 -46 -11.5t-18 -41.5q-1 -12 -1 -31.5v-37t1 -25.5h-93q-3 37 -1 82q2 73 37.5 106.5t124.5 33.5t122.5 -36t33.5 -118l-1 -454h-96v58
h-15q-14 -32 -35 -48.5t-61 -16.5zM189 65q55 0 77 52l1 178q-21 -6 -41.5 -14t-44.5 -22q-32 -18 -42.5 -41.5t-10.5 -51.5q-1 -14 -1 -22.5t1 -18.5q2 -28 18 -44t43 -16zM67 658q3 48 28.5 69.5t62.5 19.5q27 -1 43.5 -11.5t30 -20.5t31.5 -11q18 0 30 9.5t12 25.5h43
q-1 -45 -25.5 -66.5t-61.5 -20.5q-26 1 -42.5 11t-31 20t-32.5 12q-17 1 -30 -7.5t-16 -29.5h-42z" />
    <glyph glyph-name="ae" unicode="&#xe6;" horiz-adv-x="615" 
d="M147 -7q-53 0 -82.5 30t-33.5 94q-1 13 -1.5 25t0.5 24q3 50 33.5 85.5t91.5 62.5q24 12 49.5 21.5t51.5 18.5v121q0 25 -10.5 41.5t-48.5 16.5q-29 0 -42.5 -12t-14.5 -43q-1 -15 -1 -44.5t1 -47.5h-95q-1 16 -1.5 39t0.5 45q2 71 37.5 104.5t119.5 33.5q37 0 63.5 -7
t42.5 -20q38 27 111 27q78 0 115 -32.5t41 -107.5q0 -12 0.5 -40t0.5 -65t-2 -76h-220v-163q0 -32 16 -44.5t49 -12.5q34 0 46.5 13.5t13.5 43.5q1 25 1 46t-1 46h95q1 -14 1.5 -40t-0.5 -42q-4 -76 -39.5 -109t-115.5 -33q-114 0 -146 66h-9q-15 -33 -46.5 -49t-70.5 -16z
M353 359h125q1 40 0.5 72.5t-0.5 46.5q-2 30 -15.5 42.5t-44.5 12.5q-33 0 -49 -12.5t-16 -42.5v-119zM185 65q16 0 33 7.5t28 28.5t11 62q0 25 -0.5 54.5t-0.5 65.5q-18 -5 -37.5 -13t-40.5 -22q-26 -15 -38 -35.5t-13 -46.5q-1 -9 -1 -19t2 -23q6 -59 57 -59z" />
    <glyph glyph-name="b" unicode="b" horiz-adv-x="431" 
d="M390 471q2 -46 2.5 -107.5t0 -124t-2.5 -110.5q-3 -73 -34 -105t-88 -32q-43 0 -65.5 16.5t-40.5 49.5h-13v-58h-99v800h99v-258h18q19 33 41.5 49.5t65.5 16.5q56 0 85 -31.5t31 -105.5zM291 121q4 86 4 173t-3 184q-1 29 -13.5 43t-43.5 14q-30 0 -53 -14t-33 -40v-362
q10 -28 34.5 -41t51.5 -13q30 0 42.5 13.5t13.5 42.5z" />
    <glyph glyph-name="c" unicode="c" horiz-adv-x="418" 
d="M52 134q-2 33 -2.5 76t-0.5 89t0.5 89t2.5 76q4 77 42 110.5t122 33.5t122 -32.5t40 -107.5v-43.5t-1 -38.5h-97q2 21 1.5 47t-0.5 45q-1 30 -15.5 43t-49.5 13q-36 0 -50.5 -13t-15.5 -43q-3 -93 -3 -177t3 -177q1 -32 16.5 -45t50.5 -13t49 13.5t15 44.5q0 20 0.5 41
t-1.5 51h97q1 -15 1.5 -40t-0.5 -42q-4 -76 -41 -109t-120 -33q-87 0 -124.5 33.5t-40.5 108.5z" />
    <glyph glyph-name="ccedilla" unicode="&#xe7;" horiz-adv-x="418" 
d="M52 134q-2 33 -2.5 76t-0.5 89t0.5 89t2.5 76q4 77 42 110.5t122 33.5t122 -32.5t40 -107.5v-43.5t-1 -38.5h-97q2 21 1.5 47t-0.5 45q-1 30 -15.5 43t-49.5 13q-36 0 -50.5 -13t-15.5 -43q-3 -93 -3 -177t3 -177q1 -32 16.5 -45t50.5 -13t49 13.5t15 44.5q0 20 0.5 41
t-1.5 51h97q1 -15 1.5 -40t-0.5 -42q-4 -76 -41 -109t-120 -33q-87 0 -124.5 33.5t-40.5 108.5zM258 -137q-15 0 -32 1.5t-31 4.5l9 36q21 -4 54 -3q27 1 27 17q0 11 -8 16t-19 5h-64l-4 4v69h48v-38h20q31 0 52.5 -12.5t21.5 -43.5q0 -54 -74 -56z" />
    <glyph glyph-name="d" unicode="d" horiz-adv-x="431" 
d="M283 800h99v-800h-99v58h-17q-18 -33 -41.5 -49.5t-65.5 -16.5q-58 0 -86.5 32t-31.5 105q-2 50 -2 112t0.5 123t1.5 107q3 74 33.5 105.5t86.5 31.5q42 0 65 -16.5t41 -49.5h16v258zM196 65q28 0 52 13t35 41v362q-11 28 -35 41t-52 13q-29 0 -42 -13t-14 -41
q-2 -60 -3 -123.5t0 -124t3 -110.5q1 -32 14.5 -45t41.5 -13z" />
    <glyph glyph-name="eth" unicode="&#xf0;" horiz-adv-x="432" 
d="M220 -9q-89 0 -129 36.5t-44 121.5q-2 51 -2 115.5t1 138.5q1 66 35 102t90 36q34 0 59.5 -12.5t37.5 -33.5h11q-15 62 -44 109l-71 -32l-25 48l61 27q-19 23 -42 42t-50 36l53 83q39 -25 71.5 -52.5t57.5 -60.5l78 35l24 -48l-70 -31q32 -54 48 -122t19 -153v-113.5
v-114.5q-3 -84 -41.5 -120.5t-127.5 -36.5zM219 72q69 0 71 59q2 122 1 186.5t-1 91.5q-8 53 -78 53q-66 0 -68 -63v-90.5t0.5 -94.5t1.5 -82q1 -32 19.5 -46t53.5 -14z" />
    <glyph glyph-name="e" unicode="e" horiz-adv-x="419" 
d="M280 216h97q1 -15 1.5 -40.5t-0.5 -41.5q-4 -76 -40 -109t-120 -33q-88 0 -125.5 33.5t-40.5 108.5q-2 33 -2.5 76t-0.5 89t0.5 89t2.5 76q4 78 42.5 111t122.5 33q83 0 120.5 -33.5t40.5 -106.5q1 -12 1 -43v-69.5t-2 -73.5h-229q0 -39 0.5 -78t1.5 -80
q1 -32 16.5 -44.5t50.5 -12.5q34 0 48 12.5t16 44.5q1 15 1 39t-2 53zM217 533q-37 0 -51.5 -13.5t-15.5 -41.5q-1 -31 -1.5 -62t-0.5 -63h133q1 39 1 75.5t-1 49.5q-2 30 -17 42.5t-47 12.5z" />
    <glyph glyph-name="eacute" unicode="&#xe9;" horiz-adv-x="419" 
d="M280 216h97q1 -15 1.5 -40.5t-0.5 -41.5q-4 -76 -40 -109t-120 -33q-88 0 -125.5 33.5t-40.5 108.5q-2 33 -2.5 76t-0.5 89t0.5 89t2.5 76q4 78 42.5 111t122.5 33q83 0 120.5 -33.5t40.5 -106.5q1 -12 1 -43v-69.5t-2 -73.5h-229q0 -39 0.5 -78t1.5 -80
q1 -32 16.5 -44.5t50.5 -12.5q34 0 48 12.5t16 44.5q1 15 1 39t-2 53zM217 533q-37 0 -51.5 -13.5t-15.5 -41.5q-1 -31 -1.5 -62t-0.5 -63h133q1 39 1 75.5t-1 49.5q-2 30 -17 42.5t-47 12.5zM182 654l89 123h73l-92 -123h-70z" />
    <glyph glyph-name="ecircumflex" unicode="&#xea;" horiz-adv-x="419" 
d="M280 216h97q1 -15 1.5 -40.5t-0.5 -41.5q-4 -76 -40 -109t-120 -33q-88 0 -125.5 33.5t-40.5 108.5q-2 33 -2.5 76t-0.5 89t0.5 89t2.5 76q4 78 42.5 111t122.5 33q83 0 120.5 -33.5t40.5 -106.5q1 -12 1 -43v-69.5t-2 -73.5h-229q0 -39 0.5 -78t1.5 -80
q1 -32 16.5 -44.5t50.5 -12.5q34 0 48 12.5t16 44.5q1 15 1 39t-2 53zM217 533q-37 0 -51.5 -13.5t-15.5 -41.5q-1 -31 -1.5 -62t-0.5 -63h133q1 39 1 75.5t-1 49.5q-2 30 -17 42.5t-47 12.5zM101 642l79 123h63l79 -123h-68l-43 71l-42 -71h-68z" />
    <glyph glyph-name="edieresis" unicode="&#xeb;" horiz-adv-x="419" 
d="M280 216h97q1 -15 1.5 -40.5t-0.5 -41.5q-4 -76 -40 -109t-120 -33q-88 0 -125.5 33.5t-40.5 108.5q-2 33 -2.5 76t-0.5 89t0.5 89t2.5 76q4 78 42.5 111t122.5 33q83 0 120.5 -33.5t40.5 -106.5q1 -12 1 -43v-69.5t-2 -73.5h-229q0 -39 0.5 -78t1.5 -80
q1 -32 16.5 -44.5t50.5 -12.5q34 0 48 12.5t16 44.5q1 15 1 39t-2 53zM217 533q-37 0 -51.5 -13.5t-15.5 -41.5q-1 -31 -1.5 -62t-0.5 -63h133q1 39 1 75.5t-1 49.5q-2 30 -17 42.5t-47 12.5zM236 662v85h93v-85h-93zM102 662v85h93v-85h-93z" />
    <glyph glyph-name="egrave" unicode="&#xe8;" horiz-adv-x="419" 
d="M280 216h97q1 -15 1.5 -40.5t-0.5 -41.5q-4 -76 -40 -109t-120 -33q-88 0 -125.5 33.5t-40.5 108.5q-2 33 -2.5 76t-0.5 89t0.5 89t2.5 76q4 78 42.5 111t122.5 33q83 0 120.5 -33.5t40.5 -106.5q1 -12 1 -43v-69.5t-2 -73.5h-229q0 -39 0.5 -78t1.5 -80
q1 -32 16.5 -44.5t50.5 -12.5q34 0 48 12.5t16 44.5q1 15 1 39t-2 53zM217 533q-37 0 -51.5 -13.5t-15.5 -41.5q-1 -31 -1.5 -62t-0.5 -63h133q1 39 1 75.5t-1 49.5q-2 30 -17 42.5t-47 12.5zM89 777h70l92 -123h-70z" />
    <glyph glyph-name="f" unicode="f" horiz-adv-x="332" 
d="M88 0l-1 525h-57v75h57v67q0 76 39 109t124 33q16 0 36 -2t36 -4v-73q-15 1 -33 1.5t-38 0.5q-33 0 -49.5 -12.5t-16.5 -45.5v-74h117v-75h-117l1 -525h-98z" />
    <glyph glyph-name="g" unicode="g" horiz-adv-x="449" 
d="M222 -177q-78 0 -123.5 23t-51.5 64q0 5 -0.5 13t0.5 14q2 27 21.5 42.5t47.5 19.5v16q-55 12 -59 54q-1 7 -1 12t1 11q1 20 18 35.5t42 18.5v16q-33 15 -49.5 46.5t-19.5 80.5q-2 47 -2 88t2 87q5 78 43 111t123 33q111 0 144 -62h15q6 53 71 54v-75h-12
q-25 0 -39.5 -15.5t-14.5 -50.5q1 -52 1 -92t-2 -78q-4 -77 -41.5 -110.5t-121.5 -33.5q-4 0 -7 0.5t-5 0.5q-38 -1 -52 -10t-14 -26v-5q0 -18 22 -24t70 -7q86 -3 130.5 -28t50.5 -81q1 -6 1 -15.5t-1 -18.5q-4 -41 -29 -64.5t-66 -33.5t-92 -10zM214 220q31 0 49 13t19 45
q3 47 2.5 94.5t-2.5 103.5q-2 30 -18 43.5t-50 13.5q-36 0 -53 -14t-18 -45q-1 -56 -1.5 -101.5t1.5 -93.5q2 -32 19.5 -45.5t51.5 -13.5zM225 -105q89 0 99 43q4 12 0 26q-9 36 -100 40q-46 1 -67 -9.5t-23 -33.5q-3 -11 0 -25q2 -22 23.5 -31.5t67.5 -9.5z" />
    <glyph glyph-name="h" unicode="h" horiz-adv-x="432" 
d="M50 0v800h99v-258h18q19 33 41.5 49.5t65.5 16.5q58 0 86.5 -32.5t29.5 -104.5l1 -471h-98l-1 479q-1 29 -13.5 42.5t-42.5 13.5q-31 0 -54 -14t-33 -40v-481h-99z" />
    <glyph glyph-name="i" unicode="i" horiz-adv-x="196" 
d="M40 712v88h116v-88h-116zM50 0v600h97v-600h-97z" />
    <glyph glyph-name="dotlessi" unicode="&#x131;" horiz-adv-x="196" 
d="M50 0v600h97v-600h-97z" />
    <glyph glyph-name="iacute" unicode="&#xed;" horiz-adv-x="196" 
d="M50 0v600h97v-600h-97zM66 654l89 123h73l-92 -123h-70z" />
    <glyph glyph-name="icircumflex" unicode="&#xee;" horiz-adv-x="196" 
d="M50 0v600h97v-600h-97zM-15 642l79 123h63l79 -123h-68l-43 71l-42 -71h-68z" />
    <glyph glyph-name="idieresis" unicode="&#xef;" horiz-adv-x="196" 
d="M50 0v600h97v-600h-97zM119 662v85h93v-85h-93zM-15 662v85h93v-85h-93z" />
    <glyph glyph-name="i.loclTRK" horiz-adv-x="196" 
d="M50 0v600h97v-600h-97zM46 662v85h103v-85h-103z" />
    <glyph glyph-name="igrave" unicode="&#xec;" horiz-adv-x="196" 
d="M50 0v600h97v-600h-97zM-28 777h70l92 -123h-70z" />
    <glyph glyph-name="j" unicode="j" horiz-adv-x="201" 
d="M61 712v88h116v-88h-116zM-71 -202v74q14 -1 34 -2t39 -1q36 0 51.5 13.5t15.5 42.5v675h100v-665q-1 -76 -40.5 -109.5t-125.5 -33.5q-16 0 -36.5 2t-37.5 4z" />
    <glyph glyph-name="k" unicode="k" horiz-adv-x="419" 
d="M50 0v800h92v-154l-10 -300l12 -1l32 66l85 189h102l-120 -240l146 -360h-102l-105 261l-37 -65v-196h-95z" />
    <glyph glyph-name="l" unicode="l" horiz-adv-x="196" 
d="M50 0v800h97v-800h-97z" />
    <glyph glyph-name="m" unicode="m" horiz-adv-x="663" 
d="M50 0v600h97v-58h19q17 32 38.5 49t63.5 17q41 0 67.5 -17t37.5 -54h17q17 32 42 51.5t68 19.5q55 0 83.5 -32t28.5 -105v-471h-97v479q0 30 -14 43t-40 13q-54 0 -79 -53v-482h-98v479q-1 56 -54 56q-29 0 -51 -14t-32 -40v-481h-97z" />
    <glyph glyph-name="n" unicode="n" horiz-adv-x="442" 
d="M50 0v600h97v-58h20q19 33 43 49.5t64 16.5q58 0 87.5 -32.5t29.5 -104.5v-471h-97v479q-1 56 -58 56q-28 0 -53.5 -14.5t-35.5 -39.5v-481h-97z" />
    <glyph glyph-name="ntilde" unicode="&#xf1;" horiz-adv-x="442" 
d="M50 0v600h97v-58h20q19 33 43 49.5t64 16.5q58 0 87.5 -32.5t29.5 -104.5v-471h-97v479q-1 56 -58 56q-28 0 -53.5 -14.5t-35.5 -39.5v-481h-97zM81 658q3 48 28.5 69.5t62.5 19.5q27 -1 43.5 -11.5t30 -20.5t31.5 -11q18 0 30 9.5t12 25.5h43q-1 -45 -25.5 -66.5
t-61.5 -20.5q-26 1 -42.5 11t-31 20t-32.5 12q-17 1 -30 -7.5t-16 -29.5h-42z" />
    <glyph glyph-name="o" unicode="o" horiz-adv-x="439" 
d="M220 -8q-90 0 -127 36t-41 120q-2 36 -2.5 91t0 112.5t2.5 100.5q5 85 42 120.5t126 35.5q91 0 127 -36.5t40 -119.5q2 -40 2.5 -94.5t0 -110t-2.5 -99.5q-4 -84 -40.5 -120t-126.5 -36zM220 66q38 0 53.5 14.5t16.5 44.5q3 90 3 174.5t-3 175.5q-1 31 -17 45t-53 14
t-53.5 -15t-17.5 -45q-3 -76 -3 -167t4 -181q1 -31 17 -45.5t53 -14.5z" />
    <glyph glyph-name="oacute" unicode="&#xf3;" horiz-adv-x="439" 
d="M220 -8q-90 0 -127 36t-41 120q-2 36 -2.5 91t0 112.5t2.5 100.5q5 85 42 120.5t126 35.5q91 0 127 -36.5t40 -119.5q2 -40 2.5 -94.5t0 -110t-2.5 -99.5q-4 -84 -40.5 -120t-126.5 -36zM220 66q38 0 53.5 14.5t16.5 44.5q3 90 3 174.5t-3 175.5q-1 31 -17 45t-53 14
t-53.5 -15t-17.5 -45q-3 -76 -3 -167t4 -181q1 -31 17 -45.5t53 -14.5zM188 654l89 123h73l-92 -123h-70z" />
    <glyph glyph-name="ocircumflex" unicode="&#xf4;" horiz-adv-x="439" 
d="M220 -8q-90 0 -127 36t-41 120q-2 36 -2.5 91t0 112.5t2.5 100.5q5 85 42 120.5t126 35.5q91 0 127 -36.5t40 -119.5q2 -40 2.5 -94.5t0 -110t-2.5 -99.5q-4 -84 -40.5 -120t-126.5 -36zM220 66q38 0 53.5 14.5t16.5 44.5q3 90 3 174.5t-3 175.5q-1 31 -17 45t-53 14
t-53.5 -15t-17.5 -45q-3 -76 -3 -167t4 -181q1 -31 17 -45.5t53 -14.5zM107 642l79 123h63l79 -123h-68l-43 71l-42 -71h-68z" />
    <glyph glyph-name="odieresis" unicode="&#xf6;" horiz-adv-x="439" 
d="M220 -8q-90 0 -127 36t-41 120q-2 36 -2.5 91t0 112.5t2.5 100.5q5 85 42 120.5t126 35.5q91 0 127 -36.5t40 -119.5q2 -40 2.5 -94.5t0 -110t-2.5 -99.5q-4 -84 -40.5 -120t-126.5 -36zM220 66q38 0 53.5 14.5t16.5 44.5q3 90 3 174.5t-3 175.5q-1 31 -17 45t-53 14
t-53.5 -15t-17.5 -45q-3 -76 -3 -167t4 -181q1 -31 17 -45.5t53 -14.5zM241 662v85h93v-85h-93zM107 662v85h93v-85h-93z" />
    <glyph glyph-name="ograve" unicode="&#xf2;" horiz-adv-x="439" 
d="M220 -8q-90 0 -127 36t-41 120q-2 36 -2.5 91t0 112.5t2.5 100.5q5 85 42 120.5t126 35.5q91 0 127 -36.5t40 -119.5q2 -40 2.5 -94.5t0 -110t-2.5 -99.5q-4 -84 -40.5 -120t-126.5 -36zM220 66q38 0 53.5 14.5t16.5 44.5q3 90 3 174.5t-3 175.5q-1 31 -17 45t-53 14
t-53.5 -15t-17.5 -45q-3 -76 -3 -167t4 -181q1 -31 17 -45.5t53 -14.5zM94 777h70l92 -123h-70z" />
    <glyph glyph-name="oslash" unicode="&#xf8;" horiz-adv-x="439" 
d="M220 -8q-90 0 -127 36t-41 120q-2 36 -2.5 91t0 112.5t2.5 100.5q5 85 42 120.5t126 35.5q91 0 127 -36.5t40 -119.5q2 -40 2.5 -94.5t0 -110t-2.5 -99.5q-4 -84 -40.5 -120t-126.5 -36zM149 474q-3 -67 -3 -147.5t2 -160.5l116 360q-16 8 -44 8q-37 0 -53.5 -15
t-17.5 -45zM220 66q38 0 53.5 14.5t16.5 44.5q3 79 3.5 152.5t-2.5 150.5l-114 -354q15 -8 43 -8z" />
    <glyph glyph-name="otilde" unicode="&#xf5;" horiz-adv-x="439" 
d="M220 -8q-90 0 -127 36t-41 120q-2 36 -2.5 91t0 112.5t2.5 100.5q5 85 42 120.5t126 35.5q91 0 127 -36.5t40 -119.5q2 -40 2.5 -94.5t0 -110t-2.5 -99.5q-4 -84 -40.5 -120t-126.5 -36zM220 66q38 0 53.5 14.5t16.5 44.5q3 90 3 174.5t-3 175.5q-1 31 -17 45t-53 14
t-53.5 -15t-17.5 -45q-3 -76 -3 -167t4 -181q1 -31 17 -45.5t53 -14.5zM80 658q3 48 28.5 69.5t62.5 19.5q27 -1 43.5 -11.5t30 -20.5t31.5 -11q18 0 30 9.5t12 25.5h43q-1 -45 -25.5 -66.5t-61.5 -20.5q-26 1 -42.5 11t-31 20t-32.5 12q-17 1 -30 -7.5t-16 -29.5h-42z" />
    <glyph glyph-name="oe" unicode="&#x153;" horiz-adv-x="663" 
d="M220 -8q-90 0 -127 36t-41 120q-2 36 -2.5 91t0 112.5t2.5 100.5q5 85 42 120.5t126 35.5q91 0 127 -36.5t40 -119.5q2 -40 2.5 -94.5t0 -110t-2.5 -99.5q-4 -84 -40.5 -120t-126.5 -36zM220 66q38 0 53.5 14.5t16.5 44.5q3 90 3 174.5t-3 175.5q-1 31 -17 45t-53 14
t-53.5 -15t-17.5 -45q-3 -76 -3 -167t4 -181q1 -31 17 -45.5t53 -14.5zM524 216h97q1 -15 1.5 -40.5t-0.5 -41.5q-4 -76 -40 -109t-120 -33q-88 0 -125.5 33.5t-40.5 108.5q-2 33 -2.5 76t-0.5 89t0.5 89t2.5 76q4 78 42.5 111t122.5 33q83 0 120.5 -33.5t40.5 -106.5
q1 -12 1 -43v-69.5t-2 -73.5h-229q0 -39 0.5 -78t1.5 -80q1 -32 16.5 -44.5t50.5 -12.5q34 0 48 12.5t16 44.5q1 15 1 39t-2 53zM461 533q-37 0 -51.5 -13.5t-15.5 -41.5q-1 -31 -1.5 -62t-0.5 -63h133q1 39 1 75.5t-1 49.5q-2 30 -17 42.5t-47 12.5z" />
    <glyph glyph-name="p" unicode="p" horiz-adv-x="441" 
d="M50 -200v800h99v-58h15q19 33 41 49.5t66 16.5q57 0 86.5 -32t32.5 -105q1 -29 1.5 -74.5t0.5 -96.5t-0.5 -96.5t-1.5 -74.5q-3 -73 -35 -105t-89 -32q-35 0 -58.5 15t-43.5 51h-15v-258h-99zM230 65q59 0 61 56q3 74 4 133t0 113.5t-4 113.5q-1 28 -14 41t-42 13
q-30 0 -53 -14t-33 -40v-362q11 -30 30.5 -42t50.5 -12z" />
    <glyph glyph-name="thorn" unicode="&#xfe;" horiz-adv-x="441" 
d="M50 -200v1000h99v-258h15q19 33 41 49.5t66 16.5q57 0 86.5 -32t32.5 -105q1 -29 1.5 -74.5t0.5 -96.5t-0.5 -96.5t-1.5 -74.5q-3 -73 -35 -105t-89 -32q-35 0 -58.5 15t-43.5 51h-15v-258h-99zM230 65q59 0 61 56q3 71 4 129.5t0 113.5t-4 117q-1 28 -14 41t-42 13
q-30 0 -53 -14t-33 -40v-362q11 -30 30.5 -42t50.5 -12z" />
    <glyph glyph-name="q" unicode="q" horiz-adv-x="442" 
d="M293 -200v258h-14q-20 -36 -44 -51t-58 -15q-58 0 -90 32t-35 105q-2 33 -2.5 78.5t-0.5 94t1 93t2 76.5q3 73 32 105t87 32q42 0 65 -16.5t41 -49.5h16v58h99v-800h-99zM212 65q31 0 50.5 12t30.5 42v362q-11 28 -34.5 41t-52.5 13q-27 0 -41 -13t-15 -44
q-2 -55 -2.5 -117t0 -124t2.5 -116q2 -56 62 -56z" />
    <glyph glyph-name="r" unicode="r" horiz-adv-x="318" 
d="M50 0v600h99v-63h19q9 36 31 51t59 15q11 0 21 -1t19 -1v-76h-38q-48 0 -75 -14.5t-36 -50.5v-460h-99z" />
    <glyph glyph-name="s" unicode="s" horiz-adv-x="408" 
d="M200 -8q-82 0 -116 33t-37 109v43.5t1 38.5h88q-1 -32 -1 -54t1 -38q0 -32 15.5 -45t48.5 -13q37 0 53.5 13t17.5 45v59q-1 30 -10 45.5t-35 23.5l-60 16q-63 18 -91 50t-29 98q-1 27 0 48q1 77 36.5 110.5t122.5 33.5q82 0 116.5 -32.5t36.5 -108.5q1 -8 1 -23.5
t-0.5 -31.5t-1.5 -26h-90q1 22 1 49t-1 43q-1 31 -14 43.5t-48 12.5q-34 0 -48 -12.5t-15 -43.5q0 -8 -0.5 -21t-0.5 -31q1 -32 9 -51.5t38 -26.5l55 -14q61 -15 90.5 -48.5t29.5 -98.5v-28t-1 -27q-1 -75 -37.5 -107.5t-124.5 -32.5z" />
    <glyph glyph-name="germandbls" unicode="&#xdf;" horiz-adv-x="423" 
d="M392 279q1 -28 1 -63t-1 -62q-1 -88 -45.5 -121t-127.5 -33h-23v86h23q35 0 54 16t20 53q3 62 0 121q-2 51 -21.5 68t-55.5 17h-16v86h13q35 0 54.5 19.5t19.5 60.5q2 38 1.5 64.5t-1.5 65.5q-2 33 -18.5 47.5t-51.5 14.5q-39 0 -53.5 -16t-14.5 -45v-658h-99v644
q0 49 14 83.5t51 53.5t105 19q88 0 126.5 -35.5t39.5 -117.5q1 -34 0.5 -61.5t-1.5 -59.5q-2 -49 -21 -75t-55 -38v-17q41 -12 61.5 -39.5t21.5 -77.5z" />
    <glyph glyph-name="t" unicode="t" horiz-adv-x="344" 
d="M261 -8q-90 0 -127.5 32.5t-37.5 111.5l-1 389h-50v75h53v170h101l-3 -170h106v-75h-109l1 -401q0 -34 14 -46t54 -12q15 0 26 0.5t26 1.5v-71q-23 -5 -53 -5z" />
    <glyph glyph-name="u" unicode="u" horiz-adv-x="442" 
d="M172 -8q-58 0 -89 32t-31 106v470h98l1 -479q0 -29 13 -42.5t42 -13.5q28 0 53 14.5t35 39.5v481h99v-600h-99v58h-15q-20 -35 -46 -50.5t-61 -15.5z" />
    <glyph glyph-name="uacute" unicode="&#xfa;" horiz-adv-x="442" 
d="M172 -8q-58 0 -89 32t-31 106v470h98l1 -479q0 -29 13 -42.5t42 -13.5q28 0 53 14.5t35 39.5v481h99v-600h-99v58h-15q-20 -35 -46 -50.5t-61 -15.5zM189 654l89 123h73l-92 -123h-70z" />
    <glyph glyph-name="ucircumflex" unicode="&#xfb;" horiz-adv-x="442" 
d="M172 -8q-58 0 -89 32t-31 106v470h98l1 -479q0 -29 13 -42.5t42 -13.5q28 0 53 14.5t35 39.5v481h99v-600h-99v58h-15q-20 -35 -46 -50.5t-61 -15.5zM108 642l79 123h63l79 -123h-68l-43 71l-42 -71h-68z" />
    <glyph glyph-name="udieresis" unicode="&#xfc;" horiz-adv-x="442" 
d="M172 -8q-58 0 -89 32t-31 106v470h98l1 -479q0 -29 13 -42.5t42 -13.5q28 0 53 14.5t35 39.5v481h99v-600h-99v58h-15q-20 -35 -46 -50.5t-61 -15.5zM242 662v85h93v-85h-93zM108 662v85h93v-85h-93z" />
    <glyph glyph-name="ugrave" unicode="&#xf9;" horiz-adv-x="442" 
d="M172 -8q-58 0 -89 32t-31 106v470h98l1 -479q0 -29 13 -42.5t42 -13.5q28 0 53 14.5t35 39.5v481h99v-600h-99v58h-15q-20 -35 -46 -50.5t-61 -15.5zM96 777h70l92 -123h-70z" />
    <glyph glyph-name="v" unicode="v" horiz-adv-x="408" 
d="M122 0l-92 600h101l41 -302l20 -225h23l21 225l41 302h101l-93 -600h-163z" />
    <glyph glyph-name="w" unicode="w" horiz-adv-x="645" 
d="M105 0l-75 600h99l30 -302l16 -225h22l16 225l31 300h158l30 -300l16 -225h22l16 225l31 302h99l-77 -600h-163l-23 232l-20 293h-21l-21 -292l-22 -233h-164z" />
    <glyph glyph-name="x" unicode="x" horiz-adv-x="395" 
d="M29 0l91 311l-89 289h97l34 -128l24 -120h23l25 120l35 128h97l-91 -290l93 -310h-97l-39 155l-23 123h-22l-22 -123l-39 -155h-97z" />
    <glyph glyph-name="y" unicode="y" horiz-adv-x="393" 
d="M117 0l-95 600h101l35 -285l26 -242h22l28 242l33 285h101l-102 -664q-8 -48 -25 -79.5t-52.5 -47t-97.5 -15.5q-15 0 -34 1.5t-36 4.5v74q13 -2 33 -3t36 -1q42 0 57.5 13t20.5 46l10 71h-61z" />
    <glyph glyph-name="yacute" unicode="&#xfd;" horiz-adv-x="393" 
d="M117 0l-95 600h101l35 -285l26 -242h22l28 242l33 285h101l-102 -664q-8 -48 -25 -79.5t-52.5 -47t-97.5 -15.5q-15 0 -34 1.5t-36 4.5v74q13 -2 33 -3t36 -1q42 0 57.5 13t20.5 46l10 71h-61zM165 654l89 123h73l-92 -123h-70z" />
    <glyph glyph-name="ydieresis" unicode="&#xff;" horiz-adv-x="393" 
d="M117 0l-95 600h101l35 -285l26 -242h22l28 242l33 285h101l-102 -664q-8 -48 -25 -79.5t-52.5 -47t-97.5 -15.5q-15 0 -34 1.5t-36 4.5v74q13 -2 33 -3t36 -1q42 0 57.5 13t20.5 46l10 71h-61zM218 662v85h93v-85h-93zM84 662v85h93v-85h-93z" />
    <glyph glyph-name="z" unicode="z" horiz-adv-x="357" 
d="M25 0v62l201 465l-197 -1v73l303 1v-64l-204 -463h199v-73h-302z" />
    <glyph glyph-name="ordfeminine" unicode="&#xaa;" horiz-adv-x="370" 
d="M149 377q-48 0 -70.5 21.5t-27.5 69.5q-1 6 -1 15v18q3 40 25.5 65.5t80.5 47.5q18 6 40 12.5t46 13.5q0 17 -0.5 35t-1.5 36q-1 19 -10 29t-41 10q-24 0 -36 -8.5t-15 -28.5v-18.5t0.5 -26.5t0.5 -19h-77q-1 8 -1 28v31q2 50 31 75t101 25t98 -26.5t28 -87.5
q1 -25 1 -65.5v-87t-0.5 -88.5t-0.5 -71h-79q0 11 0.5 21.5t0.5 20.5h-13q-12 -23 -29.5 -35t-49.5 -12zM178 434q21 0 38 8.5t26 26.5q0 33 0.5 60.5t0.5 56.5q-18 -4 -35.5 -10t-34.5 -14q-26 -11 -35 -26.5t-10 -34.5q-2 -14 0 -28q3 -20 16.5 -29.5t33.5 -9.5z" />
    <glyph glyph-name="ordmasculine" unicode="&#xba;" horiz-adv-x="374" 
d="M186 376q-70 0 -100 26t-34 91q-1 14 -1.5 40.5t-0.5 57.5t0.5 58.5t1.5 42.5q6 62 33 89t100 27q76 0 105.5 -28t32.5 -88q1 -16 1.5 -44t0.5 -59t-0.5 -57.5t-1.5 -38.5q-3 -40 -15.5 -66t-41 -38.5t-80.5 -12.5zM188 434q30 0 42.5 10t13.5 31q2 50 2.5 86t0 70.5
t-2.5 79.5q-1 20 -14 29.5t-42 9.5q-55 0 -57 -40q-2 -45 -2.5 -80.5t0 -71.5t2.5 -84q2 -40 57 -40z" />
    <glyph glyph-name="zero" unicode="0" horiz-adv-x="444" 
d="M222 -8q-80 0 -124.5 39.5t-46.5 116.5q-2 145 -2 267t2 237q2 76 46 116t125 40q80 0 124 -40t46 -116q3 -119 3 -251t-3 -253q-2 -77 -47 -116.5t-123 -39.5zM222 72q69 0 71 58q5 146 5 278.5t-5 261.5q-1 58 -71 58t-72 -59q-2 -82 -3 -149.5t-1 -128.5t1 -124
t3 -136q2 -59 72 -59z" />
    <glyph glyph-name="one" unicode="1" horiz-adv-x="244" 
d="M94 0v705h-50l-4 37l72 58h82v-800h-100z" />
    <glyph glyph-name="two" unicode="2" horiz-adv-x="450" 
d="M53 0q-1 23 -1.5 36.5t-0.5 26v33t1 58.5q2 94 36 149t94 89l60 34q36 22 45.5 50t11.5 56q1 32 1.5 67.5t-1.5 67.5q-4 61 -78 61q-37 0 -54 -16t-18 -42q-1 -37 -1 -76t2 -80h-98q-1 43 -1.5 74t0.5 63q3 84 43.5 120.5t127.5 36.5q92 0 132 -36.5t43 -120.5
q1 -16 1.5 -39t0 -45.5t-1.5 -36.5q-3 -73 -34.5 -117t-85.5 -75l-65 -37q-33 -20 -46.5 -62t-13.5 -85v-68h241v-86h-340z" />
    <glyph glyph-name="three" unicode="3" horiz-adv-x="444" 
d="M219 -8q-92 0 -135 36.5t-46 120.5q-2 54 0 123h99v-135q0 -65 79 -65q73 0 74 65q2 48 2 88.5t-2 80.5q-2 33 -20 52.5t-65 19.5l-77 -1l-3 82l152 255h-236v86h349l-1 -82l-156 -255q79 -4 115.5 -40t40.5 -120q1 -39 1 -84t-1 -69q-4 -85 -43.5 -121.5t-126.5 -36.5z
" />
    <glyph glyph-name="four" unicode="4" horiz-adv-x="466" 
d="M242 0v229h-212v80l167 491h138v-485h82v-86h-82v-229h-93zM125 315h117l12 204l12 195h-24l-54 -195z" />
    <glyph glyph-name="five" unicode="5" horiz-adv-x="455" 
d="M229 -8q-93 0 -134.5 37t-44.5 120q-1 38 -0.5 66.5t1.5 56.5h99q-2 -18 -2.5 -43.5t-0.5 -50.5t1 -39q2 -35 22.5 -51t55.5 -16q74 0 78 66q4 57 4.5 111.5t-3.5 102.5q-4 63 -71 63q-35 0 -56.5 -19t-22.5 -43h-94v447h334v-86h-236v-266h19q11 20 37.5 34t60.5 14
q63 0 93.5 -37t33.5 -103q3 -46 2.5 -102t-3.5 -104q-6 -84 -45.5 -121t-127.5 -37z" />
    <glyph glyph-name="six" unicode="6" horiz-adv-x="451" 
d="M222 -9q-90 0 -129.5 37t-40.5 121q-2 149 -2.5 276.5t2.5 225.5q3 81 46 119t123 38q83 0 126.5 -39.5t46.5 -112.5q1 -26 0.5 -52.5t-0.5 -57.5h-98q2 31 1.5 59.5t-1.5 62.5q-3 59 -74 59q-70 0 -71 -59q-2 -49 -3 -106.5t-1 -120.5h21q12 20 40.5 34t62.5 14
q68 0 97.5 -32t30.5 -108q1 -42 1.5 -72t0 -59.5t-1.5 -68.5q-5 -85 -45.5 -121.5t-131.5 -36.5zM223 72q75 0 77 60q1 44 1.5 76.5t0.5 64.5t-1 73q-1 32 -20 46.5t-51 14.5q-35 0 -58.5 -15t-24.5 -44q0 -101 3 -213q0 -33 19.5 -48t53.5 -15z" />
    <glyph glyph-name="seven" unicode="7" horiz-adv-x="409" 
d="M76 0l205 714h-251v86h349v-87l-201 -713h-102z" />
    <glyph glyph-name="eight" unicode="8" horiz-adv-x="442" 
d="M221 -8q-90 0 -128.5 37.5t-41.5 119.5q-1 36 -1.5 65.5t2.5 72.5q3 46 21 73.5t54 42.5v17q-28 10 -46 32t-23 57q-4 37 -5 72t1 70q4 84 42 120.5t125 36.5q85 0 124.5 -36.5t43.5 -121.5q1 -34 0 -68.5t-4 -70.5q-5 -37 -23.5 -59t-46.5 -32v-17q33 -15 52 -42t23 -73
q3 -41 3 -73.5t-2 -65.5q-4 -84 -42.5 -120.5t-127.5 -36.5zM221 457q71 0 72 67q0 38 0.5 69.5t-0.5 69.5q-1 33 -18 49t-54 16q-69 0 -71 -65q-2 -37 -2 -69t2 -71q0 -35 18 -50.5t53 -15.5zM221 72q37 0 54 16t18 49q1 38 1 77t-1 84q-2 66 -72 66q-37 0 -54 -16t-17 -50
q-2 -45 -2 -83.5t1 -76.5q1 -32 17.5 -49t54.5 -17z" />
    <glyph glyph-name="nine" unicode="9" horiz-adv-x="450" 
d="M231 -9q-88 0 -128.5 36.5t-41.5 120.5q-1 18 -0.5 50.5t0.5 54.5h99q-1 -29 -1.5 -60.5t0.5 -59.5q2 -61 71 -61q33 0 51 14.5t19 46.5q2 45 2.5 102t1.5 119h-18q-12 -20 -38.5 -33.5t-60.5 -13.5q-57 0 -96.5 33.5t-40.5 110.5q0 37 -0.5 75.5t0 71.5t1.5 52
q3 85 44.5 121.5t131.5 36.5q91 0 130 -37t41 -121q2 -96 2.5 -176.5t-0.5 -158.5t-2 -167q-2 -84 -42 -120.5t-125 -36.5zM223 388q75 0 80 54q0 58 -1 115.5t-3 110.5q-1 31 -20 45t-53 14q-76 0 -76 -60q-1 -11 -1 -40t-0.5 -65t-0.5 -67.5t1 -45.5q0 -32 20.5 -46.5
t53.5 -14.5z" />
    <glyph glyph-name="zero.dnom" horiz-adv-x="307" 
d="M153 -5q-49 0 -76.5 23.5t-30.5 70.5q-2 37 -1.5 88.5t1.5 94.5q2 45 29.5 69t77.5 24q51 0 78.5 -24.5t29.5 -68.5q2 -43 1.5 -94.5t-1.5 -87.5q-2 -46 -30 -70.5t-78 -24.5zM153 52q33 0 35 27q3 45 3 99t-3 104q-2 26 -35 26t-34 -26q-3 -50 -3 -104t3 -100
q0 -10 9 -18t25 -8z" />
    <glyph glyph-name="one.dnom" horiz-adv-x="213" 
d="M71 0v299h-49l-2 24l67 37h61v-360h-77z" />
    <glyph glyph-name="two.dnom" horiz-adv-x="305" 
d="M46 0q-1 29 -1 45t1 30q1 39 23 64t55 41l34 17q15 8 21 17t7 23q1 16 0.5 25t-0.5 23q0 9 -8 16t-26 7q-33 0 -34 -23q-1 -16 -0.5 -33t1.5 -28h-72q-1 15 -1.5 25t0.5 27q4 89 106 89q106 0 107 -89q1 -10 1 -18v-20q-1 -37 -20.5 -58.5t-53.5 -36.5l-39 -17
q-25 -13 -25 -43v-21h132v-62h-208z" />
    <glyph glyph-name="three.dnom" horiz-adv-x="301" 
d="M147 -5q-111 0 -112 85v17.5t1 21.5h73q-1 -10 -1 -21v-18q1 -28 37 -28q35 0 36 26q1 28 0 53q-2 28 -39 28h-49l-2 53l71 86h-121v62h211l-1 -60l-78 -86q37 -4 59.5 -23.5t22.5 -58.5v-27.5v-24.5q-1 -41 -27.5 -63t-80.5 -22z" />
    <glyph glyph-name="four.dnom" horiz-adv-x="298" 
d="M155 0v89h-125v59l97 212h97v-209h44v-62h-44v-89h-69zM102 151h53l9 81l8 66h-14l-25 -66z" />
    <glyph glyph-name="five.dnom" horiz-adv-x="312" 
d="M158 -5q-57 0 -84.5 16t-28.5 67v20.5t1 20.5h74q-1 -11 -1.5 -22t0.5 -20q0 -25 37 -25q33 0 37 28q0 6 0.5 21t0.5 29.5v20.5q-2 26 -35 26q-37 0 -38 -25h-70v208h209v-62h-135v-92h12q16 19 57 19q35 0 53.5 -17t18.5 -54q1 -18 1 -31.5t-1 -36.5q-1 -53 -29 -72
t-79 -19z" />
    <glyph glyph-name="six.dnom" horiz-adv-x="308" 
d="M154 -5q-59 0 -83 22.5t-25 71.5q-1 18 -1 50.5v68.5t1 64q2 50 31 71.5t76 21.5q50 0 78 -17.5t28 -62.5q0 -8 0.5 -18.5t-0.5 -17.5h-72q0 7 0.5 18t-0.5 18q0 23 -34 23q-19 0 -25.5 -6.5t-7.5 -15.5q-1 -21 -1.5 -42.5t-0.5 -42.5h13q8 11 24 17t36 6q41 0 56 -19.5
t15 -55.5q1 -19 1 -32t-1 -29q0 -49 -24 -71t-84 -22zM154 52q19 0 27 6t8 21q2 23 2 36.5t-2 32.5q-2 24 -31 24q-23 0 -33 -9q-6 -5 -7 -13v-34t1 -38q1 -14 8.5 -20t26.5 -6z" />
    <glyph glyph-name="seven.dnom" horiz-adv-x="272" 
d="M54 0l118 298h-147v62h222v-64l-116 -296h-77z" />
    <glyph glyph-name="eight.dnom" horiz-adv-x="308" 
d="M154 -5q-57 0 -82 18t-26 61q-2 22 0 48q0 40 46 55v9q-41 8 -42 58q-1 11 -1 24.5v23.5q1 42 26.5 57.5t78.5 15.5q58 0 81.5 -19t23.5 -57q1 -22 0 -45q-3 -53 -43 -59v-8q47 -16 47 -56q1 -25 0 -47q0 -40 -25 -59.5t-84 -19.5zM154 215q33 0 34 26q2 21 0 40
q0 12 -7.5 19.5t-26.5 7.5q-34 0 -34 -26q-1 -20 0 -42q0 -25 34 -25zM154 51q34 0 35 25q1 11 1 22.5t-1 24.5q0 13 -8 20t-27 7t-26 -7t-7 -19q-3 -26 -1 -48q1 -11 8.5 -18t25.5 -7z" />
    <glyph glyph-name="nine.dnom" horiz-adv-x="309" 
d="M157 -5q-52 0 -80 17t-28 62v18.5v17.5h72v-36q0 -22 35 -22q31 0 32 23q3 36 2 82h-13q-6 -11 -21.5 -16.5t-35.5 -5.5q-74 0 -75 75q-1 14 -0.5 34t0.5 27q1 51 28 72.5t83 21.5q58 0 80.5 -22.5t25.5 -71.5q3 -69 0 -183q-1 -48 -28.5 -70.5t-76.5 -22.5zM151 186
q17 0 27.5 6.5t10.5 18.5q1 13 0.5 35.5t-0.5 34.5q-1 27 -34 27q-34 0 -36 -27q-1 -21 -1 -37t1 -33q1 -25 32 -25z" />
    <glyph glyph-name="zero.numr" horiz-adv-x="307" 
d="M153 434q-49 0 -76.5 23.5t-30.5 70.5q-2 37 -1.5 88.5t1.5 94.5q2 45 29.5 69t77.5 24q51 0 78.5 -24.5t29.5 -68.5q2 -43 1.5 -94.5t-1.5 -87.5q-2 -46 -30 -70.5t-78 -24.5zM153 491q33 0 35 27q3 45 3 99t-3 104q-2 26 -35 26t-34 -26q-3 -50 -3 -104t3 -100
q0 -10 9 -18t25 -8z" />
    <glyph glyph-name="one.numr" horiz-adv-x="213" 
d="M71 441v299h-49l-2 24l67 37h61v-360h-77z" />
    <glyph glyph-name="two.numr" horiz-adv-x="305" 
d="M46 439q-1 29 -1 45t1 30q1 39 23 64t55 41l34 17q15 8 21 17t7 23q1 16 0.5 25t-0.5 23q0 9 -8 16t-26 7q-33 0 -34 -23q-1 -16 -0.5 -33t1.5 -28h-72q-1 15 -1.5 25t0.5 27q4 89 106 89q106 0 107 -89q1 -10 1 -18v-20q-1 -37 -20.5 -58.5t-53.5 -36.5l-39 -17
q-25 -13 -25 -43v-21h132v-62h-208z" />
    <glyph glyph-name="three.numr" horiz-adv-x="301" 
d="M147 435q-111 0 -112 85v17.5t1 21.5h73q-1 -10 -1 -21v-18q1 -28 37 -28q35 0 36 26q1 28 0 53q-2 28 -39 28h-49l-2 53l71 86h-121v62h211l-1 -60l-78 -86q37 -4 59.5 -23.5t22.5 -58.5v-27.5v-24.5q-1 -41 -27.5 -63t-80.5 -22z" />
    <glyph glyph-name="four.numr" horiz-adv-x="298" 
d="M155 440v89h-125v59l97 212h97v-209h44v-62h-44v-89h-69zM102 591h53l9 81l8 66h-14l-25 -66z" />
    <glyph glyph-name="five.numr" horiz-adv-x="312" 
d="M158 435q-57 0 -84.5 16t-28.5 67v20.5t1 20.5h74q-1 -11 -1.5 -22t0.5 -20q0 -25 37 -25q33 0 37 28q0 6 0.5 21t0.5 29.5v20.5q-2 26 -35 26q-37 0 -38 -25h-70v208h209v-62h-135v-92h12q16 19 57 19q35 0 53.5 -17t18.5 -54q1 -18 1 -31.5t-1 -36.5q-1 -53 -29 -72
t-79 -19z" />
    <glyph glyph-name="six.numr" horiz-adv-x="308" 
d="M154 435q-59 0 -83 22.5t-25 71.5q-1 18 -1 50.5v68.5t1 64q2 50 31 71.5t76 21.5q50 0 78 -17.5t28 -62.5q0 -8 0.5 -18.5t-0.5 -17.5h-72q0 7 0.5 18t-0.5 18q0 23 -34 23q-19 0 -25.5 -6.5t-7.5 -15.5q-1 -21 -1.5 -42.5t-0.5 -42.5h13q8 11 24 17t36 6q41 0 56 -19.5
t15 -55.5q1 -19 1 -32t-1 -29q0 -49 -24 -71t-84 -22zM154 492q19 0 27 6t8 21q2 23 2 36.5t-2 32.5q-2 24 -31 24q-23 0 -33 -9q-6 -5 -7 -13v-34t1 -38q1 -14 8.5 -20t26.5 -6z" />
    <glyph glyph-name="seven.numr" horiz-adv-x="272" 
d="M54 440l118 298h-147v62h222v-64l-116 -296h-77z" />
    <glyph glyph-name="eight.numr" horiz-adv-x="308" 
d="M154 434q-57 0 -82 18t-26 61q-2 22 0 48q0 40 46 55v9q-41 8 -42 58q-1 11 -1 24.5v23.5q1 42 26.5 57.5t78.5 15.5q58 0 81.5 -19t23.5 -57q1 -22 0 -45q-3 -53 -43 -59v-8q47 -16 47 -56q1 -25 0 -47q0 -40 -25 -59.5t-84 -19.5zM154 654q33 0 34 26q2 21 0 40
q0 12 -7.5 19.5t-26.5 7.5q-34 0 -34 -26q-1 -20 0 -42q0 -25 34 -25zM154 490q34 0 35 25q1 11 1 22.5t-1 24.5q0 13 -8 20t-27 7t-26 -7t-7 -19q-3 -26 -1 -48q1 -11 8.5 -18t25.5 -7z" />
    <glyph glyph-name="nine.numr" horiz-adv-x="309" 
d="M157 434q-52 0 -80 17t-28 62v18.5v17.5h72v-36q0 -22 35 -22q31 0 32 23q3 36 2 82h-13q-6 -11 -21.5 -16.5t-35.5 -5.5q-74 0 -75 75q-1 14 -0.5 34t0.5 27q1 51 28 72.5t83 21.5q58 0 80.5 -22.5t25.5 -71.5q3 -69 0 -183q-1 -48 -28.5 -70.5t-76.5 -22.5zM151 625
q17 0 27.5 6.5t10.5 18.5q1 13 0.5 35.5t-0.5 34.5q-1 27 -34 27q-34 0 -36 -27q-1 -21 -1 -37t1 -33q1 -25 32 -25z" />
    <glyph glyph-name="uni00B9" unicode="&#xb9;" horiz-adv-x="213" 
d="M71 442v299h-49l-2 24l67 37h61v-360h-77z" />
    <glyph glyph-name="uni00B2" unicode="&#xb2;" horiz-adv-x="305" 
d="M46 439q-1 29 -1 45t1 30q1 39 23 64t55 41l34 17q15 8 21 17t7 23q1 16 0.5 25t-0.5 23q0 9 -8 16t-26 7q-33 0 -34 -23q-1 -16 -0.5 -33t1.5 -28h-72q-1 15 -1.5 25t0.5 27q4 89 106 89q106 0 107 -89q1 -10 1 -18v-20q-1 -37 -20.5 -58.5t-53.5 -36.5l-39 -17
q-25 -13 -25 -43v-21h132v-62h-208z" />
    <glyph glyph-name="uni00B3" unicode="&#xb3;" horiz-adv-x="301" 
d="M147 435q-111 0 -112 85v17.5t1 21.5h73q-1 -10 -1 -21v-18q1 -28 37 -28q35 0 36 26q1 28 0 53q-2 28 -39 28h-49l-2 53l71 86h-121v62h211l-1 -60l-78 -86q37 -4 59.5 -23.5t22.5 -58.5v-27.5v-24.5q-1 -41 -27.5 -63t-80.5 -22z" />
    <glyph glyph-name="uni2074" unicode="&#x2074;" horiz-adv-x="298" 
d="M155 440v89h-125v59l97 212h97v-209h44v-62h-44v-89h-69zM102 591h53l9 81l8 66h-14l-25 -66z" />
    <glyph glyph-name="fraction" unicode="&#x2044;" horiz-adv-x="58" 
d="M-225 0l438 800h70l-439 -800h-69z" />
    <glyph glyph-name="onehalf" unicode="&#xbd;" horiz-adv-x="606" 
d="M71 441v299h-49l-2 24l67 37h61v-360h-77zM9 0l438 800h70l-439 -800h-69zM348 0q-1 29 -1 45t1 30q1 39 23 64t55 41l34 17q15 8 21 17t7 23q1 16 0.5 25t-0.5 23q0 9 -8 16t-26 7q-33 0 -34 -23q-1 -16 -0.5 -33t1.5 -28h-72q-1 15 -1.5 25t0.5 27q4 89 106 89
q106 0 107 -89q1 -10 1 -18v-20q-1 -37 -20.5 -58.5t-53.5 -36.5l-39 -17q-25 -13 -25 -43v-21h132v-62h-208z" />
    <glyph glyph-name="onequarter" unicode="&#xbc;" horiz-adv-x="590" 
d="M71 441v299h-49l-2 24l67 37h61v-360h-77zM9 0l438 800h70l-439 -800h-69zM446 0v89h-125v59l97 212h97v-209h44v-62h-44v-89h-69zM393 151h53l9 81l8 66h-14l-25 -66z" />
    <glyph glyph-name="threequarters" unicode="&#xbe;" horiz-adv-x="678" 
d="M147 435q-111 0 -112 85v17.5t1 21.5h73q-1 -10 -1 -21v-18q1 -28 37 -28q35 0 36 26q1 28 0 53q-2 28 -39 28h-49l-2 53l71 86h-121v62h211l-1 -60l-78 -86q37 -4 59.5 -23.5t22.5 -58.5v-27.5v-24.5q-1 -41 -27.5 -63t-80.5 -22zM97 0l438 800h70l-439 -800h-69zM535 0
v89h-125v59l97 212h97v-209h44v-62h-44v-89h-69zM482 151h53l9 81l8 66h-14l-25 -66z" />
    <glyph glyph-name="period" unicode="." horiz-adv-x="243" 
d="M45 0v108h153v-108h-153z" />
    <glyph glyph-name="comma" unicode="," horiz-adv-x="243" 
d="M45 0v109h154v-99l-68 -127h-61l54 117h-79z" />
    <glyph glyph-name="colon" unicode=":" horiz-adv-x="243" 
d="M45 300v108h153v-108h-153zM45 0v108h153v-108h-153z" />
    <glyph glyph-name="semicolon" unicode=";" horiz-adv-x="243" 
d="M45 0v109h154v-99l-68 -127h-61l54 117h-79zM45 301v108h153v-108h-153z" />
    <glyph glyph-name="ellipsis" unicode="&#x2026;" horiz-adv-x="646" 
d="M45 0v108h153v-108h-153zM247 0v108h153v-108h-153zM448 0v108h153v-108h-153z" />
    <glyph glyph-name="exclam" unicode="!" horiz-adv-x="243" 
d="M85 174l-13 290v336h99v-336l-12 -290h-74zM45 0v108h153v-108h-153z" />
    <glyph glyph-name="exclamdown" unicode="&#xa1;" horiz-adv-x="243" 
d="M85 426l-13 -290v-336h99v336l-12 290h-74zM45 600v-108h153v108h-153z" />
    <glyph glyph-name="question" unicode="?" horiz-adv-x="440" 
d="M165 188l-3 96q-3 48 10 78.5t62 58.5l21 11q23 11 28 34.5t5 59.5v138q0 58 -70 58q-63 0 -67 -59q-2 -32 -2 -69t2 -71h-105q-1 42 -1 66.5t1 56.5q4 87 43.5 125t127.5 38q95 0 136.5 -38t41.5 -125q0 -51 0.5 -75.5t0.5 -44.5q-1 -65 -13.5 -98t-32.5 -47.5
t-44 -24.5l-24 -11q-22 -10 -26.5 -27t-6.5 -34l-4 -96h-80zM127 0v108h154v-108h-154z" />
    <glyph glyph-name="questiondown" unicode="&#xbf;" horiz-adv-x="440" 
d="M275 412l3 -96q3 -48 -10 -78.5t-62 -58.5l-21 -11q-23 -11 -28 -34.5t-5 -59.5v-138q0 -58 70 -58q63 0 67 59q2 32 2 69t-2 71h105q1 -42 1 -66.5t-1 -56.5q-4 -87 -43.5 -125t-127.5 -38q-95 0 -136.5 38t-41.5 125q0 51 -0.5 75.5t-0.5 44.5q1 65 13.5 98t32.5 47.5
t44 24.5l24 11q22 10 26.5 27t6.5 34l4 96h80zM313 600v-108h-154v108h154z" />
    <glyph glyph-name="periodcentered" unicode="&#xb7;" horiz-adv-x="243" 
d="M45 352v104h153v-104h-153z" />
    <glyph glyph-name="bullet" unicode="&#x2022;" horiz-adv-x="271" 
d="M45 324v162h181v-162h-181z" />
    <glyph glyph-name="asterisk" unicode="*" horiz-adv-x="311" 
d="M45 661l76 35l-76 35l22 38l70 -44l-4 79h45l-5 -78l71 43l22 -38l-75 -35l75 -35l-22 -38l-71 44l5 -79h-45l4 78l-70 -43z" />
    <glyph glyph-name="numbersign" unicode="#" horiz-adv-x="643" 
d="M66 0l58 216h-94l20 81h93l54 193h-94l20 81h93l62 229h98l-62 -229h107l62 229h97l-63 -229h96l-19 -81h-96l-54 -193h94l-20 -81h-93l-57 -216h-97l58 216h-108l-58 -216h-97zM240 297h107l55 193h-108z" />
    <glyph glyph-name="slash" unicode="/" horiz-adv-x="377" 
d="M30 -200l219 1000h98l-219 -1000h-98z" />
    <glyph glyph-name="backslash" unicode="\" horiz-adv-x="347" 
d="M317 -200l-219 1000h-98l219 -1000h98z" />
    <glyph glyph-name="periodcentered.loclCAT" horiz-adv-x="203" 
d="M25 352v104h153v-104h-153z" />
    <glyph glyph-name="parenleft" unicode="(" horiz-adv-x="274" 
d="M30 303q0 87 15.5 177.5t46.5 173t79 146.5h73q-56 -114 -84.5 -243t-28.5 -257q0 -127 29 -258.5t84 -241.5h-73q-44 62 -75.5 142.5t-48.5 172.5t-17 188z" />
    <glyph glyph-name="parenright" unicode=")" horiz-adv-x="264" 
d="M234 303q0 87 -15.5 177.5t-46.5 173t-79 146.5h-73q56 -114 84.5 -243t28.5 -257q0 -127 -29 -258.5t-84 -241.5h73q44 62 75.5 142.5t48.5 172.5t17 188z" />
    <glyph glyph-name="braceleft" unicode="{" horiz-adv-x="344" 
d="M314 -201q-58 0 -104.5 17t-74 54t-27.5 97q0 15 1.5 46.5t3 68t3 65.5t1.5 39q0 41 -16 53t-42 12h-29v95h29q26 0 42 12.5t16 53.5q0 9 -1.5 38.5t-3 66t-2.5 68.5t-1 47q0 60 27 97t73.5 54t104.5 17v-51q-46 0 -77.5 -33.5t-31.5 -83.5q0 -13 1.5 -39t2.5 -56.5
t2.5 -57t1.5 -40.5q0 -52 -21 -87.5t-64 -43.5v-17q43 -8 64 -43.5t21 -87.5q0 -14 -1.5 -40.5t-2.5 -57t-2.5 -56.5t-1.5 -39q0 -50 31.5 -83.5t77.5 -33.5v-51z" />
    <glyph glyph-name="braceright" unicode="}" horiz-adv-x="344" 
d="M30 -201q58 0 104.5 17t74 54t27.5 97q0 15 -1.5 46.5t-3 68t-3 65.5t-1.5 39q0 41 16 53t42 12h29v95h-29q-26 0 -42 12.5t-16 53.5q0 9 1.5 38.5t3 66t2.5 68.5t1 47q0 60 -27 97t-73.5 54t-104.5 17v-51q46 0 77.5 -33.5t31.5 -83.5q0 -13 -1.5 -39t-2.5 -56.5
t-2.5 -57t-1.5 -40.5q0 -52 21 -87.5t64 -43.5v-17q-43 -8 -64 -43.5t-21 -87.5q0 -14 1.5 -40.5t2.5 -57t2.5 -56.5t1.5 -39q0 -50 -31.5 -83.5t-77.5 -33.5v-51z" />
    <glyph glyph-name="bracketleft" unicode="[" horiz-adv-x="309" 
d="M50 -200v1000h229v-50h-130v-900h130v-50h-229z" />
    <glyph glyph-name="bracketright" unicode="]" horiz-adv-x="309" 
d="M259 -200v1000h-229v-50h130v-900h-130v-50h229z" />
    <glyph glyph-name="hyphen" unicode="-" horiz-adv-x="384" 
d="M30 329v87h324v-87h-324z" />
    <glyph glyph-name="uni00AD" unicode="&#xad;" horiz-adv-x="374" 
d="M30 329v87h324v-87h-324z" />
    <glyph glyph-name="endash" unicode="&#x2013;" horiz-adv-x="476" 
d="M30 329v87h416v-87h-416z" />
    <glyph glyph-name="emdash" unicode="&#x2014;" horiz-adv-x="785" 
d="M30 329v87h725v-87h-725z" />
    <glyph glyph-name="underscore" unicode="_" horiz-adv-x="676" 
d="M30 -60v20h616v-20h-616z" />
    <glyph glyph-name="quotesinglbase" unicode="&#x201a;" horiz-adv-x="243" 
d="M45 0v109h154v-99l-68 -127h-61l54 117h-79z" />
    <glyph glyph-name="quotedblbase" unicode="&#x201e;" horiz-adv-x="461" 
d="M45 0v109h154v-99l-68 -127h-61l54 117h-79zM259 0v109h154v-99l-68 -127h-61l54 117h-79z" />
    <glyph glyph-name="quotedblleft" unicode="&#x201c;" horiz-adv-x="413" 
d="M347 800l-49 -117h71v-109h-143v99l64 127h57zM45 574v99l63 127h58l-50 -117h71v-109h-142z" />
    <glyph glyph-name="quotedblright" unicode="&#x201d;" horiz-adv-x="413" 
d="M66 574l49 117h-70v109h142v-99l-64 -127h-57zM226 691v109h143v-99l-64 -127h-57l49 117h-71z" />
    <glyph glyph-name="quoteleft" unicode="&#x2018;" horiz-adv-x="243" 
d="M45 574v99l67 127h61l-53 -117h79v-109h-154z" />
    <glyph glyph-name="quoteright" unicode="&#x2019;" horiz-adv-x="243" 
d="M45 691v109h154v-99l-68 -127h-61l54 117h-79z" />
    <glyph glyph-name="guillemotleft" unicode="&#xab;" horiz-adv-x="379" 
d="M179 108l-159 157v94l159 157v-94l-111 -110l111 -110v-94zM330 108l-159 157v94l159 157v-94l-111 -110l111 -110v-94z" />
    <glyph glyph-name="guillemotright" unicode="&#xbb;" horiz-adv-x="364" 
d="M185 108l159 157v94l-159 157v-94l111 -110l-111 -110v-94zM34 108l159 157v94l-159 157v-94l111 -110l-111 -110v-94z" />
    <glyph glyph-name="guilsinglleft" unicode="&#x2039;" horiz-adv-x="234" 
d="M189 108l-159 157v94l159 157v-94l-111 -110l111 -110v-94z" />
    <glyph glyph-name="guilsinglright" unicode="&#x203a;" horiz-adv-x="234" 
d="M45 108l159 157v94l-159 157v-94l111 -110l-111 -110v-94z" />
    <glyph glyph-name="quotedbl" unicode="&#x22;" horiz-adv-x="340" 
d="M64 566l-19 120v114h87v-114l-19 -120h-49zM207 686v114h88v-114l-19 -120h-50z" />
    <glyph glyph-name="quotesingle" unicode="'" horiz-adv-x="182" 
d="M45 686v114h92v-114l-20 -120h-52z" />
    <glyph glyph-name="space" unicode=" " horiz-adv-x="210" 
 />
    <glyph glyph-name="uni00A0" unicode="&#xa0;" horiz-adv-x="210" 
 />
    <glyph glyph-name="uni2009" unicode="&#x2009;" horiz-adv-x="220" 
 />
    <glyph glyph-name="uni200B" unicode="&#x200b;" horiz-adv-x="20" 
 />
    <glyph glyph-name="cent" unicode="&#xa2;" horiz-adv-x="423" 
d="M176 0v95q-60 8 -88 41t-31 98q-1 32 -1.5 79t-0.5 96t0.5 91t1.5 64q3 66 31 99.5t88 41.5v95h87v-94q61 -7 89.5 -40t30.5 -98q1 -17 0.5 -42t-1.5 -40h-96q1 21 1 48t-1 44q0 30 -14.5 43t-50.5 13q-35 0 -50 -13t-16 -43q-2 -93 -2 -177t2 -177q1 -32 16.5 -45
t50.5 -13t49.5 13.5t14.5 44.5q1 18 1 40t-1 52h96q1 -15 1.5 -40t-0.5 -42q-3 -66 -31 -99.5t-89 -40.5v-94h-87z" />
    <glyph glyph-name="currency" unicode="&#xa4;" horiz-adv-x="527" 
d="M97 25l-45 36l67 84q-21 34 -24 97q-2 37 -2.5 92t0 112.5t2.5 100.5q4 64 24 98l-69 85l43 36l67 -82q37 19 103 19q65 0 101 -18l68 80l43 -37l-69 -82q11 -18 17 -42.5t7 -56.5q2 -40 2.5 -94.5t0 -110.5t-2.5 -100q-3 -65 -24 -99l65 -81l-44 -37l-64 80
q-36 -18 -100 -18q-66 0 -103 19zM263 161q38 0 53.5 14.5t16.5 44.5q3 90 3 174.5t-3 175.5q-1 31 -17 45t-53 14t-53.5 -15t-17.5 -46q-3 -75 -3 -166t4 -181q1 -31 17 -45.5t53 -14.5z" />
    <glyph glyph-name="dollar" unicode="$" horiz-adv-x="454" 
d="M183 904h87v-99q64 -8 93 -43.5t32 -107.5q1 -29 0.5 -64.5t-1.5 -72.5h-94q2 43 2 79.5t-1 72.5q-1 31 -18.5 44t-55.5 13q-37 0 -54.5 -13t-19.5 -44q-2 -35 -2 -68.5t2 -68.5q1 -38 12 -57t38 -26l60 -13q74 -16 103.5 -56.5t32.5 -114.5q1 -28 0.5 -59.5t-1.5 -59.5
q-3 -72 -33 -108t-95 -43v-91h-87v91q-64 8 -93.5 44t-31.5 107q-2 38 -1.5 72.5t3.5 73.5h92q-2 -43 -2.5 -82.5t2.5 -77.5q2 -32 19.5 -45t56.5 -13q37 0 54 13t19 45q3 31 2.5 66.5t-2.5 66.5q-1 35 -16.5 54.5t-46.5 27.5l-65 15q-66 16 -91 55.5t-27 114.5v60.5t1 62.5
q2 71 32 106.5t95 43.5v99z" />
    <glyph glyph-name="Euro" unicode="&#x20ac;" horiz-adv-x="487" 
d="M293 0q-52 0 -89 13.5t-56.5 48t-19.5 95.5q-1 45 -1 84v77h-79l15 56h64v45h-56l16 57h40l1 168q0 77 39 116.5t126 39.5h160l-25 -86h-135q-35 0 -51 -14.5t-16 -46.5q-2 -49 -2.5 -92t-0.5 -85h202l-17 -57h-186v-45h178l-16 -56h-161q0 -39 0.5 -80.5t2.5 -89.5
q0 -32 16 -47t51 -15h144l-27 -86h-117z" />
    <glyph glyph-name="sterling" unicode="&#xa3;" horiz-adv-x="458" 
d="M65 0v83q30 21 43 74.5t13 130.5q0 26 -2 48.5t-6 42.5h-63v54h50q-13 47 -24.5 96.5t-11.5 122.5q0 75 40 115.5t127 40.5q88 0 127 -36.5t42 -120.5q1 -33 0.5 -62t-1.5 -75h-98q1 21 1 50.5v57.5v46q-2 59 -71 59t-69 -59q0 -66 14.5 -120.5t26.5 -114.5h99v-54h-91
q3 -18 4.5 -37t1.5 -39q0 -74 -16 -123.5t-42 -77.5v-16h250v-86h-344z" />
    <glyph glyph-name="yen" unicode="&#xa5;" horiz-adv-x="415" 
d="M256 272v-35h80v-54h-80v-43h80v-54h-80v-86h-97v86h-79v54h79v43h-79v54h79v35h-23l-106 528h99l40 -218l23 -230h30l24 230l40 218h99l-106 -528h-23z" />
    <glyph glyph-name="uni2215" unicode="&#x2215;" horiz-adv-x="583" 
d="M50 0l414 800h69l-414 -800h-69z" />
    <glyph glyph-name="plus" unicode="+" horiz-adv-x="488" 
d="M205 187v152h-150v76h150v151h78v-151h150v-76h-150v-152h-78z" />
    <glyph glyph-name="minus" unicode="&#x2212;" horiz-adv-x="478" 
d="M50 333v87h378v-87h-378z" />
    <glyph glyph-name="multiply" unicode="&#xd7;" horiz-adv-x="440" 
d="M50 269l115 108l-115 107l54 53l116 -109l116 109l54 -53l-115 -107l115 -108l-54 -53l-116 109l-116 -109z" />
    <glyph glyph-name="divide" unicode="&#xf7;" horiz-adv-x="506" 
d="M209 470v84h88v-84h-88zM50 339v76h406v-76h-406zM209 199v84h88v-84h-88z" />
    <glyph glyph-name="equal" unicode="=" horiz-adv-x="478" 
d="M50 412v76h378v-76h-378zM50 266v76h378v-76h-378z" />
    <glyph glyph-name="greater" unicode="&#x3e;" horiz-adv-x="507" 
d="M50 256v80l206 24l127 8v23l-127 8l-206 26v81l407 -65v-124z" />
    <glyph glyph-name="less" unicode="&#x3c;" horiz-adv-x="528" 
d="M467 256v80l-206 24l-127 8v23l127 8l206 26v81l-407 -65v-124z" />
    <glyph glyph-name="plusminus" unicode="&#xb1;" horiz-adv-x="498" 
d="M211 265v75h-161v74h161v92h76v-92h161v-74h-161v-75h-76zM50 157v62h398v-62h-398z" />
    <glyph glyph-name="asciitilde" unicode="~" horiz-adv-x="497" 
d="M50 321q4 72 40.5 105t90.5 28q29 -2 49 -11.5t35 -21.5t29 -21t33 -11q27 -1 43 13.5t17 41.5h60q-2 -68 -36 -100.5t-88 -29.5q-27 2 -46.5 11.5t-35.5 21.5t-31.5 21.5t-34.5 11.5q-27 3 -44.5 -12.5t-19.5 -46.5h-61z" />
    <glyph glyph-name="logicalnot" unicode="&#xac;" horiz-adv-x="478" 
d="M351 247v164h-301v76h378v-240h-77z" />
    <glyph glyph-name="asciicircum" unicode="^" horiz-adv-x="408" 
d="M50 454l118 235h72l118 -235h-69l-85 170l-85 -170h-69z" />
    <glyph glyph-name="uni00B5" unicode="&#xb5;" horiz-adv-x="454" 
d="M51 -200l-1 800h98l1 -479q1 -56 56 -56q27 0 50.5 14.5t33.5 39.5v481h99v-493q0 -36 4.5 -63.5t11.5 -43.5h-98q-10 20 -14 58h-18q-18 -32 -40.5 -49t-55.5 -17q-18 0 -29 5v-197h-98z" />
    <glyph glyph-name="percent" unicode="%" horiz-adv-x="587" 
d="M158 434q-49 0 -77 23.5t-30 70.5q-2 37 -1.5 88.5t1.5 94.5q2 45 29.5 69t77.5 24t78 -24.5t30 -68.5q2 -43 1.5 -94.5t-1.5 -87.5q-3 -46 -30.5 -70.5t-77.5 -24.5zM69 0l378 800h69l-379 -800h-68zM158 491q33 0 35 27q2 45 2.5 99t-2.5 104q-2 26 -35 26
q-34 0 -34 -26q-3 -50 -3 -104t3 -100q0 -10 9 -18t25 -8zM428 -5q-49 0 -77 23.5t-30 70.5q-2 37 -1.5 88.5t1.5 94.5q2 45 29.5 69t77.5 24t78 -24.5t30 -68.5q2 -43 1.5 -94.5t-1.5 -87.5q-2 -46 -30 -70.5t-78 -24.5zM428 52q33 0 35 27q3 45 3 99t-3 104q-2 26 -35 26
t-34 -26q-3 -50 -3 -104t3 -100q0 -10 9 -18t25 -8z" />
    <glyph glyph-name="arrowup" unicode="&#x2191;" horiz-adv-x="365" 
d="M172 0v473l-122 -132l131 459h2l132 -459l-122 132v-473h-21z" />
    <glyph glyph-name="arrowdown" unicode="&#x2193;" horiz-adv-x="355" 
d="M172 800v-473l-122 132l131 -459h2l132 459l-122 -132v473h-21z" />
    <glyph glyph-name="at" unicode="@" horiz-adv-x="598" 
d="M299 -134q-128 0 -186.5 40.5t-60.5 134.5q-2 89 -2.5 166t0 159t2.5 184q2 96 59.5 139t187.5 43q127 0 186 -42.5t62 -140.5q1 -76 1 -138.5t-0.5 -118.5t-1.5 -114q-1 -42 -29 -62t-77 -20q-53 0 -75.5 13.5t-28.5 32.5h-15q-11 -22 -25 -34.5t-41 -12.5
q-35 0 -53 22.5t-22 74.5q-1 31 -2 70.5t0 79.5t2 71q3 53 22 76t55 23q25 0 38.5 -11.5t24.5 -35.5h12v41h77v-327q0 -32 31 -32q26 0 28 33q2 74 2.5 166.5t-1.5 206.5q-2 60 -41.5 86.5t-128.5 26.5q-85 0 -125.5 -25.5t-42.5 -87.5q-3 -100 -3.5 -183t0.5 -163t3 -170
q2 -57 41.5 -81t126.5 -24q85 0 125 24t41 81q0 10 0.5 14t-0.5 16h77q0 -10 0.5 -14t-0.5 -14q-1 -93 -58.5 -133t-184.5 -40zM287 151q13 0 26 9t19 24v237q-6 16 -19.5 25t-25.5 9q-27 0 -29 -35q-3 -66 -3 -119.5t3 -113.5q1 -20 8 -28t21 -8z" />
    <glyph glyph-name="ampersand" unicode="&#x26;" horiz-adv-x="544" 
d="M222 -8q-90 0 -129 37t-42 119q-1 34 -1 57.5t1.5 43.5t4.5 45q4 50 24.5 82t47.5 57q-24 57 -39.5 111t-17.5 102q-6 77 30.5 119.5t117.5 42.5q83 0 119 -40.5t30 -116.5q-3 -47 -17 -84.5t-40.5 -74t-67.5 -81.5q19 -36 39.5 -72.5t41.5 -70.5q0 32 -4 66.5t-9 69.5
l81 1q4 -31 7.5 -72.5t5 -84.5t-0.5 -79q25 -34 48.5 -62.5t41.5 -49.5l-65 -59q-14 17 -28 34.5t-29 36.5q-17 -39 -52.5 -58t-97.5 -19zM201 488q43 46 60.5 84.5t19.5 77.5q5 44 -8 68t-54 24q-33 0 -47 -22.5t-13 -59.5q0 -37 11.5 -81t30.5 -91zM225 70q42 0 59.5 18
t21.5 60q-35 47 -68 97.5t-62 102.5q-9 -12 -16 -26.5t-9 -31.5q-4 -27 -6 -57t0 -87q2 -36 20.5 -56t59.5 -20z" />
    <glyph glyph-name="paragraph" unicode="&#xb6;" horiz-adv-x="521" 
d="M253 -100v488h-38q-54 0 -89 13.5t-53.5 47.5t-21.5 94q-2 26 -1.5 58t1.5 44q4 87 42 121t122 34h256v-55h-48v-845h-67v845h-36v-845h-67z" />
    <glyph glyph-name="section" unicode="&#xa7;" horiz-adv-x="420" 
d="M206 -208q-55 0 -87.5 12t-48 41t-17.5 79q-1 20 -0.5 47t1.5 45h88q-2 -32 -2 -49t1 -45q2 -31 17 -43.5t48 -12.5q38 0 53.5 13t16.5 45q0 22 0.5 41t0.5 39q-1 30 -8.5 46.5t-36.5 22.5l-51 13q-56 14 -92 42t-38 87q-2 68 0 145q1 41 19 66.5t45 37.5v19
q-29 11 -45.5 32t-18.5 67q-1 21 -1 44.5t2 44.5q4 52 18.5 80.5t47.5 39.5t93 11q82 0 116 -32.5t37 -107.5q0 -17 0.5 -40.5t-1.5 -47.5h-91q2 23 2 53t-1 44q-1 33 -15 42t-47 9q-36 0 -48 -9.5t-15 -40.5q-1 -18 -2 -44.5t1 -46.5q1 -31 8 -48t38 -24l56 -12
q113 -25 119 -140q3 -42 2.5 -72t-2.5 -69q-5 -72 -63 -95v-15q63 -24 64 -105q1 -17 0.5 -38.5t-1.5 -37.5q-4 -50 -19.5 -79t-49.5 -41.5t-93 -12.5zM213 159q37 0 50 17t16 41q3 30 3 72.5t-3 70.5q-2 23 -15 40t-51 17q-36 0 -51.5 -16.5t-17.5 -39.5q-2 -36 -1.5 -73.5
t2.5 -70.5q3 -25 17.5 -41.5t50.5 -16.5z" />
    <glyph glyph-name="copyright" unicode="&#xa9;" horiz-adv-x="652" 
d="M326 -5q-276 0 -276 305t276 305t276 -305t-276 -305zM326 45q111 0 165.5 62.5t54.5 192.5q0 255 -220 255t-220 -255t220 -255zM216 201q-2 25 -2 60.5t0.5 71.5t1.5 62q2 56 28 79.5t84 23.5t83 -23.5t27 -76.5v-19t-1 -17h-61v21.5v20.5q0 26 -11.5 35.5t-36.5 9.5
q-26 0 -37.5 -10t-11.5 -36q-2 -32 -2 -70t0.5 -74.5t1.5 -64.5q0 -27 12 -37t37 -10t36 10.5t12 36.5v19v26h61q1 -12 1.5 -20t-0.5 -19q-3 -54 -27.5 -77.5t-82.5 -23.5q-56 0 -82.5 23t-29.5 79z" />
    <glyph glyph-name="registered" unicode="&#xae;" horiz-adv-x="444" 
d="M223 506q-173 0 -173 181q0 184 173 184q171 0 171 -184q0 -181 -171 -181zM223 537q71 0 105 36.5t34 113.5q0 80 -34 116t-105 36q-73 0 -107 -36t-34 -116q0 -77 34.5 -113.5t106.5 -36.5zM172 588v212h53q27 0 41.5 -10.5t15.5 -38.5q1 -11 0 -26q0 -30 -29 -36v-6
q27 -6 29 -36q1 -10 1 -29.5t-1 -29.5h-36q0 16 -0.5 34t-0.5 30q-1 20 -20 20h-16v-84h-37zM209 704h16q20 0 20 17q1 15 0 33q0 15 -20 15h-16v-65z" />
    <glyph glyph-name="trademark" unicode="&#x2122;" horiz-adv-x="419" 
d="M189 588v212h61l18 -98l7 -83h8l6 83l19 98h61v-212h-39v62l9 118h-8l-16 -121l-17 -59h-39l-16 59l-17 121h-7l9 -118v-62h-39zM91 588v180h-41v32h120v-32h-41v-180h-38z" />
    <glyph glyph-name="degree" unicode="&#xb0;" horiz-adv-x="338" 
d="M170 591q-30 0 -55 15t-40 40t-15 54q0 30 15 55t40 40t55 15q29 0 54 -15t40 -40t15 -55q0 -29 -15 -54t-40 -40t-54 -15zM101 700q0 -27 20 -46.5t49 -19.5q27 0 47.5 19.5t20.5 46.5q0 28 -20.5 47.5t-47.5 19.5q-29 0 -49 -19.5t-20 -47.5z" />
    <glyph glyph-name="minute" unicode="&#x2032;" horiz-adv-x="175" 
d="M50 686v114h92v-114l-20 -120h-52z" />
    <glyph glyph-name="second" unicode="&#x2033;" horiz-adv-x="333" 
d="M191 686v114h92v-114l-20 -120h-52zM50 686v114h92v-114l-20 -120h-52z" />
    <glyph glyph-name="bar" unicode="|" horiz-adv-x="201" 
d="M50 -200v1000h102v-1000h-102z" />
    <glyph glyph-name="brokenbar" unicode="&#xa6;" horiz-adv-x="201" 
d="M50 800h102v-372h-102v372zM50 -200v388h102v-388h-102z" />
    <glyph glyph-name="uni02BC" unicode="&#x2bc;" horiz-adv-x="192" 
d="M50 686v114h92v-114l-20 -120h-52z" />
    <glyph glyph-name="uni02BB" unicode="&#x2bb;" horiz-adv-x="219" 
d="M50 661v77l45 78h58l-35 -68h51v-87h-119z" />
    <glyph glyph-name="uni0308" 
d="M184 662v85h93v-85h-93zM50 662v85h93v-85h-93z" />
    <glyph glyph-name="uni0307" 
d="M50 662v85h103v-85h-103z" />
    <glyph glyph-name="gravecomb" 
d="M50 777h70l92 -123h-70z" />
    <glyph glyph-name="acutecomb" 
d="M42 642l89 123h73l-92 -123h-70z" />
    <glyph glyph-name="uni0302" 
d="M50 642l79 123h63l79 -123h-68l-43 71l-42 -71h-68z" />
    <glyph glyph-name="uni030A" 
d="M170 591q-33 0 -60.5 16t-43.5 42t-16 57q0 32 16 58t43.5 41.5t60.5 15.5q32 0 59.5 -15.5t44 -41.5t16.5 -58q0 -31 -16.5 -57t-44 -42t-59.5 -16zM107 706q0 -24 18.5 -41t44.5 -17q25 0 43.5 17t18.5 41t-18.5 40.5t-43.5 16.5q-26 0 -44.5 -16.5t-18.5 -40.5z" />
    <glyph glyph-name="tildecomb" 
d="M50 658q3 48 28.5 69.5t62.5 19.5q27 -1 43.5 -11.5t30 -20.5t31.5 -11q18 0 30 9.5t12 25.5h43q-1 -45 -25.5 -66.5t-61.5 -20.5q-26 1 -42.5 11t-31 20t-32.5 12q-17 1 -30 -7.5t-16 -29.5h-42z" />
    <glyph glyph-name="uni0304" 
d="M50 659v54h324v-54h-324z" />
    <glyph glyph-name="uni0312" 
d="M50 661v77l45 78h58l-35 -68h51v-87h-119z" />
    <glyph glyph-name="uni0327" 
d="M116 -144q-15 0 -32 1.5t-31 4.5l9 36q21 -4 54 -3q27 1 27 17q0 11 -8 16t-19 5h-64l-4 4v69h48v-38h20q31 0 52.5 -12.5t21.5 -43.5q0 -54 -74 -56z" />
    <glyph glyph-name="dieresis" unicode="&#xa8;" horiz-adv-x="327" 
d="M184 662v85h93v-85h-93zM50 662v85h93v-85h-93z" />
    <glyph glyph-name="grave" unicode="`" horiz-adv-x="261" 
d="M50 777h70l92 -123h-70z" />
    <glyph glyph-name="acute" unicode="&#xb4;" horiz-adv-x="261" 
d="M50 642l89 123h73l-92 -123h-70z" />
    <glyph glyph-name="circumflex" unicode="&#x2c6;" horiz-adv-x="321" 
d="M50 642l79 123h63l79 -123h-68l-43 71l-42 -71h-68z" />
    <glyph glyph-name="ring" unicode="&#x2da;" horiz-adv-x="339" 
d="M170 591q-33 0 -60.5 16t-43.5 42t-16 57q0 32 16 58t43.5 41.5t60.5 15.5q32 0 59.5 -15.5t44 -41.5t16.5 -58q0 -31 -16.5 -57t-44 -42t-59.5 -16zM107 706q0 -24 18.5 -41t44.5 -17q25 0 43.5 17t18.5 41t-18.5 40.5t-43.5 16.5q-26 0 -44.5 -16.5t-18.5 -40.5z" />
    <glyph glyph-name="tilde" unicode="&#x2dc;" horiz-adv-x="380" 
d="M50 658q3 48 28.5 69.5t62.5 19.5q27 -1 43.5 -11.5t30 -20.5t31.5 -11q18 0 30 9.5t12 25.5h43q-1 -45 -25.5 -66.5t-61.5 -20.5q-26 1 -42.5 11t-31 20t-32.5 12q-17 1 -30 -7.5t-16 -29.5h-42z" />
    <glyph glyph-name="macron" unicode="&#xaf;" horiz-adv-x="424" 
d="M50 659v54h324v-54h-324z" />
    <glyph glyph-name="cedilla" unicode="&#xb8;" horiz-adv-x="242" 
d="M118 -144q-15 0 -32 1.5t-31 4.5l9 36q21 -4 54 -3q27 1 27 17q0 11 -8 16t-19 5h-64l-4 4v69h48v-38h20q31 0 52.5 -12.5t21.5 -43.5q0 -54 -74 -56z" />
    <glyph glyph-name="uni0308.case" 
d="M184 649v69h93v-69h-93zM50 649v69h93v-69h-93z" />
    <glyph glyph-name="gravecomb.case" 
d="M49 713v2h78l105 -71v-2h-66z" />
    <glyph glyph-name="acutecomb.case" 
d="M49 642v2l105 71h78v-2l-116 -71h-67z" />
    <glyph glyph-name="uni0302.case" 
d="M47 636l97 79h70l97 -79h-75l-57 49l-57 -49h-75z" />
    <glyph glyph-name="uni0306.case" 
d="M50 722h63q0 -19 18 -30t48 -11t48 11t18 30h63q-2 -40 -37.5 -65t-91.5 -25t-91.5 25t-37.5 65z" />
    <glyph glyph-name="uni030A.case" 
d="M136 586q-36 0 -62.5 24.5t-26.5 60.5q0 34 26.5 59t62.5 25q37 0 63.5 -25t26.5 -59q0 -36 -26.5 -60.5t-63.5 -24.5zM93 671q0 -17 13 -28.5t30 -11.5q18 0 31 11.5t13 28.5q0 16 -13.5 28t-30.5 12t-30 -12t-13 -28z" />
    <glyph glyph-name="tildecomb.case" 
d="M50 642q2 40 26 58t63 14q24 -1 39 -9t28 -15t30 -8q39 -2 39 32h44q-3 -82 -84 -77q-25 1 -41 8.5t-29.5 15t-30.5 9.5q-38 6 -41 -28h-43z" />
    <glyph glyph-name="CR" unicode="&#xd;" horiz-adv-x="210" 
 />
    <glyph glyph-name="NULL" 
 />
    <glyph glyph-name="NULL" 
 />
    </font>
</defs>
</svg>
